<svg width="13" height="14" viewBox="0 0 13 14" fill="none" xmlns="http://www.w3.org/2000/svg">
<path d="M0.84082 4.05425L1.5589 12.7228C1.61036 13.3479 2.14285 13.838 2.77036 13.838H9.38671C10.0142 13.838 10.5467 13.3479 10.5982 12.7228L11.3162 4.05425H0.84082ZM4.05112 12.2164C3.8389 12.2164 3.66036 12.0513 3.6469 11.8363L3.2415 5.29579C3.22763 5.07212 3.39747 4.87971 3.62077 4.86585C3.85236 4.8496 4.03647 5.02144 4.05071 5.24512L4.45612 11.7857C4.47047 12.0173 4.2872 12.2164 4.05112 12.2164ZM6.48393 11.811C6.48393 12.0351 6.3026 12.2164 6.07852 12.2164C5.85444 12.2164 5.67312 12.0351 5.67312 11.811V5.27047C5.67312 5.04639 5.85444 4.86506 6.07852 4.86506C6.3026 4.86506 6.48393 5.04639 6.48393 5.27047V11.811ZM8.91555 5.29582L8.51014 11.8364C8.49682 12.0492 8.31944 12.2265 8.0802 12.2156C7.8569 12.2018 7.68706 12.0094 7.70093 11.7857L8.10633 5.24514C8.1202 5.02147 8.31617 4.85874 8.53628 4.86587C8.75958 4.87974 8.92941 5.07214 8.91555 5.29582Z" fill="#858EBD"/>
<path d="M11.3514 1.62162H8.91892V1.21622C8.91892 0.545568 8.37335 0 7.7027 0H4.45946C3.78881 0 3.24324 0.545568 3.24324 1.21622V1.62162H0.810811C0.363 1.62162 0 1.98462 0 2.43243C0 2.88019 0.363 3.24324 0.810811 3.24324C4.53962 3.24324 7.62268 3.24324 11.3514 3.24324C11.7992 3.24324 12.1622 2.88019 12.1622 2.43243C12.1622 1.98462 11.7992 1.62162 11.3514 1.62162ZM8.10811 1.62162H4.05405V1.21622C4.05405 0.992541 4.23578 0.810811 4.45946 0.810811H7.7027C7.92638 0.810811 8.10811 0.992541 8.10811 1.21622V1.62162Z" fill="#858EBD"/>
</svg>
