<svg width="28" height="25" viewBox="0 0 28 25" fill="none" xmlns="http://www.w3.org/2000/svg">
<path d="M11.4766 22.8516C12.7386 22.8516 13.7617 21.8285 13.7617 20.5664C13.7617 19.3043 12.7386 18.2812 11.4766 18.2812C10.2145 18.2812 9.19141 19.3043 9.19141 20.5664C9.19141 21.8285 10.2145 22.8516 11.4766 22.8516Z" fill="#858EBD"/>
<path d="M19.1445 22.8516C20.4066 22.8516 21.4297 21.8285 21.4297 20.5664C21.4297 19.3043 20.4066 18.2812 19.1445 18.2812C17.8825 18.2812 16.8594 19.3043 16.8594 20.5664C16.8594 21.8285 17.8825 22.8516 19.1445 22.8516Z" fill="#858EBD"/>
<path d="M0.761714 1.52348H3.93822L7.61567 14.3971L7.32723 14.974C6.56775 16.4913 7.67026 18.2812 9.37137 18.2812H22.1913C22.6123 18.2812 22.953 17.9405 22.953 17.5195C22.953 17.0985 22.6123 16.7578 22.1913 16.7578H9.37137C8.80572 16.7578 8.43604 16.1622 8.68999 15.6554L8.90053 15.2343H22.1913C22.5312 15.2343 22.8303 15.009 22.924 14.6816L25.9709 4.01764C26.0363 3.7878 25.9902 3.5408 25.8466 3.34966C25.7023 3.15924 25.477 3.04691 25.2382 3.04691H5.95777L5.24516 0.5527C5.15142 0.225417 4.85243 0 4.51245 0H0.761714C0.340689 0 0 0.340689 0 0.761714C0 1.18274 0.340689 1.52348 0.761714 1.52348Z" fill="#858EBD"/>
</svg>
