<svg width="20" height="18" viewBox="0 0 20 18" fill="none" xmlns="http://www.w3.org/2000/svg">
<path d="M19.5625 13.9732V15.7199C19.5625 16.6833 18.7786 17.4665 17.8158 17.4665H2.79464C1.2534 17.4665 0 16.2131 0 14.6719C0 14.6719 0 2.80512 0 2.79464C0 1.2534 1.2534 0 2.79464 0H15.7199C16.2991 0 16.7679 0.4695 16.7679 1.04799C16.7679 1.62648 16.2991 2.09598 15.7199 2.09598H2.79464C2.40968 2.09598 2.09598 2.40898 2.09598 2.79464C2.09598 3.1803 2.40968 3.4933 2.79464 3.4933H17.8158C18.7786 3.4933 19.5625 4.2765 19.5625 5.23996V6.98661H16.0692C14.143 6.98661 12.5759 8.5537 12.5759 10.4799C12.5759 12.4061 14.143 13.9732 16.0692 13.9732H19.5625Z" fill="white"/>
<path d="M19.5619 8.38403V12.576H16.0686C14.911 12.576 13.9727 11.6377 13.9727 10.48C13.9727 9.32233 14.911 8.38403 16.0686 8.38403H19.5619Z" fill="white"/>
</svg>
