<svg width="17" height="22" viewBox="0 0 17 22" fill="none" xmlns="http://www.w3.org/2000/svg">
<path fill-rule="evenodd" clip-rule="evenodd" d="M8.21868 21.125C9.41035 21.125 10.3854 20.15 10.3854 18.9583H6.05202C6.05202 20.15 7.01618 21.125 8.21868 21.125ZM14.7187 14.625V9.20833C14.7187 5.8825 12.942 3.09833 9.84368 2.36167V1.625C9.84368 0.725833 9.11785 0 8.21868 0C7.31952 0 6.59368 0.725833 6.59368 1.625V2.36167C3.48452 3.09833 1.71868 5.87167 1.71868 9.20833V14.625L0.321184 16.0225C-0.361316 16.705 0.11535 17.875 1.07952 17.875H15.347C16.3112 17.875 16.7987 16.705 16.1162 16.0225L14.7187 14.625Z" fill="#4B5EFF"/>
</svg>
