<svg width="23" height="23" viewBox="0 0 23 23" fill="none" xmlns="http://www.w3.org/2000/svg">
<path d="M19.9375 0.53125H3.0625C2.39179 0.533253 1.74912 0.800581 1.27485 1.27485C0.800581 1.74912 0.533253 2.39179 0.53125 3.0625V8.125C0.533253 8.79571 0.800581 9.43838 1.27485 9.91265C1.74912 10.3869 2.39179 10.6542 3.0625 10.6562H3.90625V6.4375C3.68247 6.4375 3.46786 6.34861 3.30963 6.19037C3.1514 6.03214 3.0625 5.81753 3.0625 5.59375C3.0625 5.36997 3.1514 5.15536 3.30963 4.99713C3.46786 4.83889 3.68247 4.75 3.90625 4.75H19.0938C19.3175 4.75 19.5321 4.83889 19.6904 4.99713C19.8486 5.15536 19.9375 5.36997 19.9375 5.59375C19.9375 5.81753 19.8486 6.03214 19.6904 6.19037C19.5321 6.34861 19.3175 6.4375 19.0938 6.4375V10.6562H19.9375C20.6082 10.6542 21.2509 10.3869 21.7252 9.91265C22.1994 9.43838 22.4667 8.79571 22.4688 8.125V3.0625C22.4667 2.39179 22.1994 1.74912 21.7252 1.27485C21.2509 0.800581 20.6082 0.533253 19.9375 0.53125Z" fill="#4B5EFF"/>
<path d="M5.59375 19.9375C5.59575 20.6082 5.86308 21.2509 6.33735 21.7252C6.81162 22.1994 7.45429 22.4667 8.125 22.4688H14.875C15.5457 22.4667 16.1884 22.1994 16.6627 21.7252C17.1369 21.2509 17.4042 20.6082 17.4062 19.9375V6.4375H5.59375V19.9375ZM8.37222 13.4347C8.53045 13.2765 8.74502 13.1877 8.96875 13.1877C9.19248 13.1877 9.40705 13.2765 9.56528 13.4347L10.6562 14.5257V10.6562C10.6562 10.4325 10.7451 10.2179 10.9034 10.0596C11.0616 9.9014 11.2762 9.8125 11.5 9.8125C11.7238 9.8125 11.9384 9.9014 12.0966 10.0596C12.2549 10.2179 12.3438 10.4325 12.3438 10.6562V14.5257L13.4347 13.4347C13.5939 13.281 13.807 13.196 14.0282 13.1979C14.2494 13.1998 14.4611 13.2886 14.6175 13.445C14.7739 13.6014 14.8627 13.8131 14.8646 14.0343C14.8665 14.2555 14.7815 14.4686 14.6278 14.6278L12.0965 17.159C11.9383 17.3172 11.7237 17.4061 11.5 17.4061C11.2763 17.4061 11.0617 17.3172 10.9035 17.159L8.37222 14.6278C8.21404 14.4696 8.12518 14.255 8.12518 14.0312C8.12518 13.8075 8.21404 13.5929 8.37222 13.4347Z" fill="#4B5EFF"/>
</svg>
