<svg width="22" height="26" viewBox="0 0 22 26" fill="none" xmlns="http://www.w3.org/2000/svg">
<path d="M14.25 4.0625H2.875C1.52881 4.0625 0.4375 5.15381 0.4375 6.5V22.75C0.4375 24.0962 1.52881 25.1875 2.875 25.1875H14.25C15.5962 25.1875 16.6875 24.0962 16.6875 22.75V6.5C16.6875 5.15381 15.5962 4.0625 14.25 4.0625Z" fill="#858EBD"/>
<path d="M21.5627 3.25V19.5C21.5608 20.1459 21.3034 20.7647 20.8467 21.2214C20.39 21.6781 19.7711 21.9356 19.1252 21.9375H18.3127V6.5C18.3127 5.42256 17.8847 4.38925 17.1229 3.62738C16.361 2.86551 15.3277 2.4375 14.2502 2.4375H5.45898C5.62661 1.96337 5.93679 1.55269 6.34699 1.26176C6.7572 0.970839 7.24734 0.813913 7.75023 0.8125H19.1252C19.7711 0.814429 20.39 1.07186 20.8467 1.52856C21.3034 1.98526 21.5608 2.60413 21.5627 3.25Z" fill="#858EBD"/>
</svg>
