<svg width="27" height="27" viewBox="0 0 27 27" fill="none" xmlns="http://www.w3.org/2000/svg">
<path d="M14.3102 9.28125H11.6543C11.5087 9.28125 11.3906 9.39932 11.3906 9.54492V12.3926C11.3906 12.5382 11.5087 12.6562 11.6543 12.6562H14.3437C15.2645 12.6562 16.0154 11.915 16.031 10.998C16.0471 10.0539 15.2543 9.28125 14.3102 9.28125Z" fill="white"/>
<path d="M14.3102 14.3438H11.6543C11.5087 14.3438 11.3906 14.4618 11.3906 14.6074V17.4551C11.3906 17.6007 11.5087 17.7188 11.6543 17.7188H14.3437C15.2645 17.7188 16.0154 16.9775 16.031 16.0605C16.0471 15.1164 15.2543 14.3438 14.3102 14.3438Z" fill="white"/>
<path d="M23.046 3.95402C20.4962 1.40421 17.106 0 13.5 0C9.89402 0 6.50384 1.40421 3.95402 3.95402C1.40421 6.50384 0 9.89402 0 13.5C0 17.106 1.40426 20.4961 3.95402 23.046C6.50378 25.5958 9.89402 27 13.5 27C17.106 27 20.4962 25.5958 23.046 23.046C25.5958 20.4962 27 17.106 27 13.5C27 9.89402 25.5957 6.50389 23.046 3.95402ZM17.7188 16.0312C17.7188 17.3858 16.9163 18.5558 15.7621 19.0926C15.6691 19.1359 15.6094 19.2287 15.6094 19.3313V20.2262C15.6094 20.6805 15.2602 21.0714 14.8064 21.0928C14.3218 21.1156 13.9219 20.7295 13.9219 20.25V19.6699C13.9219 19.5243 13.8038 19.4062 13.6582 19.4062H12.498C12.3524 19.4062 12.2344 19.5243 12.2344 19.6699V20.2262C12.2344 20.6805 11.8852 21.0714 11.4314 21.0928C10.9468 21.1156 10.5469 20.7295 10.5469 20.25V19.6699C10.5469 19.5243 10.4288 19.4062 10.2832 19.4062H8.88321C8.4289 19.4062 8.03798 19.0571 8.01657 18.6033C7.99374 18.1188 8.37981 17.7188 8.85938 17.7188H9.43945C9.58505 17.7188 9.70312 17.6007 9.70312 17.4551V13.5V9.54492C9.70312 9.39932 9.58505 9.28125 9.43945 9.28125H8.88321C8.4289 9.28125 8.03798 8.9321 8.01657 8.47832C7.99374 7.99379 8.37981 7.59375 8.85938 7.59375H10.2832C10.4288 7.59375 10.5469 7.47568 10.5469 7.33008V6.77384C10.5469 6.31948 10.896 5.92856 11.3499 5.9072C11.8344 5.88442 12.2344 6.27049 12.2344 6.75V7.33008C12.2344 7.47568 12.3524 7.59375 12.498 7.59375H13.6582C13.8038 7.59375 13.9219 7.47568 13.9219 7.33008V6.77384C13.9219 6.31948 14.271 5.92856 14.7249 5.9072C15.2094 5.88442 15.6094 6.27049 15.6094 6.75V7.66869C15.6094 7.77125 15.6691 7.86412 15.7621 7.90736C16.9163 8.4442 17.7188 9.61421 17.7188 10.9688C17.7188 11.8802 17.3551 12.708 16.7657 13.3157C16.6659 13.4187 16.6659 13.5812 16.7657 13.6842C17.3551 14.292 17.7188 15.1198 17.7188 16.0312Z" fill="white"/>
</svg>
