<svg width="21" height="21" viewBox="0 0 21 21" fill="none" xmlns="http://www.w3.org/2000/svg">
<path d="M11.1301 7.21875H9.06445C8.95121 7.21875 8.85938 7.31058 8.85938 7.42383V9.63867C8.85938 9.75192 8.95121 9.84375 9.06445 9.84375H11.1563C11.8724 9.84375 12.4564 9.26723 12.4685 8.55397C12.4811 7.81971 11.8645 7.21875 11.1301 7.21875Z" fill="white"/>
<path d="M11.1301 11.1562H9.06445C8.95121 11.1562 8.85938 11.2481 8.85938 11.3613V13.5762C8.85938 13.6894 8.95121 13.7812 9.06445 13.7812H11.1563C11.8724 13.7812 12.4564 13.2047 12.4685 12.4915C12.4811 11.7572 11.8645 11.1562 11.1301 11.1562Z" fill="white"/>
<path d="M17.9246 3.07535C15.9415 1.09216 13.3046 0 10.5 0C7.69535 0 5.05854 1.09216 3.07535 3.07535C1.09216 5.05854 0 7.69535 0 10.5C0 13.3046 1.09221 15.9414 3.07535 17.9246C5.0585 19.9079 7.69535 21 10.5 21C13.3046 21 15.9415 19.9078 17.9246 17.9246C19.9078 15.9415 21 13.3046 21 10.5C21 7.69535 19.9078 5.05858 17.9246 3.07535ZM13.7812 12.4688C13.7812 13.5223 13.1571 14.4323 12.2594 14.8498C12.1871 14.8835 12.1406 14.9557 12.1406 15.0355V15.7315C12.1406 16.0849 11.8691 16.3889 11.5161 16.4055C11.1392 16.4232 10.8281 16.123 10.8281 15.75V15.2988C10.8281 15.1856 10.7363 15.0938 10.623 15.0938H9.7207C9.60746 15.0938 9.51562 15.1856 9.51562 15.2988V15.7315C9.51562 16.0849 9.24406 16.3889 8.89108 16.4055C8.51419 16.4232 8.20312 16.123 8.20312 15.75V15.2988C8.20312 15.1856 8.11129 15.0938 7.99805 15.0938H6.90916C6.55581 15.0938 6.25177 14.8222 6.23511 14.4692C6.21735 14.0924 6.51763 13.7812 6.89062 13.7812H7.3418C7.45504 13.7812 7.54688 13.6894 7.54688 13.5762V10.5V7.42383C7.54688 7.31058 7.45504 7.21875 7.3418 7.21875H6.90916C6.55581 7.21875 6.25177 6.94719 6.23511 6.59425C6.21735 6.21739 6.51763 5.90625 6.89062 5.90625H7.99805C8.11129 5.90625 8.20312 5.81442 8.20312 5.70117V5.26854C8.20312 4.91515 8.47469 4.6111 8.82767 4.59449C9.20456 4.57677 9.51562 4.87704 9.51562 5.25V5.70117C9.51562 5.81442 9.60746 5.90625 9.7207 5.90625H10.623C10.7363 5.90625 10.8281 5.81442 10.8281 5.70117V5.26854C10.8281 4.91515 11.0997 4.6111 11.4527 4.59449C11.8296 4.57677 12.1406 4.87704 12.1406 5.25V5.96453C12.1406 6.04431 12.1871 6.11654 12.2594 6.15017C13.1571 6.56771 13.7812 7.47772 13.7812 8.53125C13.7812 9.24016 13.4984 9.88399 13.04 10.3567C12.9623 10.4368 12.9623 10.5632 13.04 10.6433C13.4984 11.116 13.7812 11.7598 13.7812 12.4688Z" fill="white"/>
</svg>
