<svg width="104" height="103" viewBox="0 0 104 103" fill="none" xmlns="http://www.w3.org/2000/svg">
<path d="M0.625122 94.3845H60.9326V103H0.625122V94.3845Z" fill="#858EBD"/>
<path d="M52.3173 85.6993C52.3173 84.5568 51.8634 83.4611 51.0556 82.6533C50.2477 81.8454 49.152 81.3916 48.0096 81.3916H13.5482C12.4057 81.3916 11.31 81.8454 10.5022 82.6533C9.69432 83.4611 9.24048 84.5568 9.24048 85.6993V90.077H52.3173V85.6993Z" fill="#858EBD"/>
<path d="M59.2375 50.4796C57.2304 52.6188 55.5473 55.0402 54.2417 57.667L89.6982 93.1235C90.506 93.9311 91.6015 94.3847 92.7437 94.3847C93.886 94.3847 94.9814 93.9311 95.7892 93.1235L101.881 87.0314C102.281 86.6314 102.599 86.1565 102.815 85.6338C103.032 85.1112 103.143 84.551 103.143 83.9853C103.143 83.4196 103.032 82.8594 102.815 82.3368C102.599 81.8141 102.281 81.3392 101.881 80.9392L66.4249 45.4924C63.7935 46.7866 61.3708 48.4676 59.2375 50.4796Z" fill="#858EBD"/>
<path d="M37.9156 29.1577C34.6581 32.1808 30.8872 34.5984 26.7803 36.2966L49.0445 58.5609C50.758 54.4611 53.178 50.6939 56.1942 47.4309C59.452 44.4079 63.2228 41.9901 67.3295 40.2909L45.0642 18.031C43.3501 22.1293 40.9306 25.8952 37.9156 29.1577Z" fill="#858EBD"/>
<path d="M53.1385 1.75038L47.0475 7.84144C45.3655 9.52343 45.3655 12.2505 47.0475 13.9325L71.4117 38.2967C73.0937 39.9787 75.8208 39.9787 77.5028 38.2967L83.5938 32.2057C85.2758 30.5237 85.2758 27.7966 83.5938 26.1146L59.2296 1.75038C57.5476 0.0683832 54.8205 0.0683829 53.1385 1.75038Z" fill="#858EBD"/>
<path d="M16.5868 38.2953L10.4957 44.3864C8.81372 46.0684 8.81372 48.7954 10.4957 50.4774L34.8599 74.8416C36.5419 76.5236 39.269 76.5236 40.951 74.8416L47.042 68.7506C48.724 67.0686 48.724 64.3415 47.042 62.6595L22.6778 38.2953C20.9958 36.6133 18.2688 36.6133 16.5868 38.2953Z" fill="#858EBD"/>
</svg>
