<svg width="20" height="18" viewBox="0 0 20 18" fill="none" xmlns="http://www.w3.org/2000/svg">
<path d="M20 2.99999V2.50011C19.9984 1.12005 18.8799 0.00164798 17.4999 0H2.49993C1.11987 0.00164798 0.00164794 1.12005 0 2.50011V2.99999H20Z" fill="#858EBD"/>
<path d="M0 4.00012V15.5C0.00164794 16.8801 1.11987 17.9985 2.49993 18H17.4999C18.8799 17.9985 19.9984 16.8801 20 15.5V4.00012H0ZM2.99999 7.49999C2.99999 7.36742 3.05254 7.24016 3.14629 7.14641C3.24022 7.05266 3.3673 6.99993 3.50005 7.00011H7.49998C7.63255 6.99993 7.7598 7.05266 7.85355 7.14641C7.94749 7.24016 8.00004 7.36742 8.00004 7.49999V10.5C8.00004 10.6327 7.94749 10.7598 7.85355 10.8537C7.7598 10.9475 7.63255 11 7.49998 11H3.50005C3.3673 11 3.24022 10.9475 3.14629 10.8537C3.05254 10.7598 2.99999 10.6327 2.99999 10.5V7.49999ZM16.5 14H3.50005C3.22393 14 2.99999 13.7761 2.99999 13.5C2.99999 13.2238 3.22393 13.0001 3.50005 13.0001H16.5C16.7761 13.0001 17 13.2238 17 13.5C17 13.7761 16.7761 14 16.5 14ZM16.5 11H10.5C10.2238 11 9.99991 10.7761 9.99991 10.5C9.99991 10.2239 10.2238 10.0001 10.5 10.0001H16.5C16.7761 10.0001 17 10.2239 17 10.5C17 10.7761 16.7761 11 16.5 11ZM16.5 8.00005H10.5C10.2238 8.00005 9.99991 7.77611 9.99991 7.49999C9.99991 7.22387 10.2238 7.00011 10.5 7.00011H16.5C16.7761 7.00011 17 7.22387 17 7.49999C17 7.77611 16.7761 8.00005 16.5 8.00005Z" fill="#858EBD"/>
<path d="M4 8H6.99999V10.0001H4V8Z" fill="#858EBD"/>
<rect x="2" y="6" width="17" height="10" fill="#858EBD"/>
<rect x="3" y="6" width="3.23077" height="3.23077" rx="1.61538" fill="#F8F8FF"/>
<rect x="8.38477" y="6" width="3.23077" height="3.23077" rx="1.61538" fill="#F8F8FF"/>
<rect x="13.7695" y="6" width="3.23077" height="3.23077" rx="1.61538" fill="#F8F8FF"/>
<rect x="3" y="11.3846" width="3.23077" height="3.23077" rx="1.61538" fill="#F8F8FF"/>
<rect x="8.38477" y="11.3846" width="3.23077" height="3.23077" rx="1.61538" fill="#F8F8FF"/>
<rect x="13.7695" y="11.3846" width="3.23077" height="3.23077" rx="1.61538" fill="#F8F8FF"/>
</svg>
