<svg width="20" height="20" viewBox="0 0 20 20" fill="none" xmlns="http://www.w3.org/2000/svg">
<path d="M16.4173 3.58337H15.5007V1.75004C15.5007 1.50693 15.4041 1.27377 15.2322 1.10186C15.0603 0.929951 14.8271 0.833374 14.584 0.833374C14.3409 0.833374 14.1077 0.929951 13.9358 1.10186C13.7639 1.27377 13.6673 1.50693 13.6673 1.75004V3.58337H6.33398V1.75004C6.33398 1.50693 6.23741 1.27377 6.0655 1.10186C5.89359 0.929951 5.66043 0.833374 5.41732 0.833374C5.1742 0.833374 4.94105 0.929951 4.76914 1.10186C4.59723 1.27377 4.50065 1.50693 4.50065 1.75004V3.58337H3.58398C2.85464 3.58337 2.15517 3.87311 1.63944 4.38883C1.12372 4.90456 0.833984 5.60403 0.833984 6.33337V7.25004H19.1673V6.33337C19.1673 5.60403 18.8776 4.90456 18.3619 4.38883C17.8461 3.87311 17.1467 3.58337 16.4173 3.58337Z" fill="#858EBD"/>
<path d="M0.833984 16.4167C0.833984 17.1461 1.12372 17.8455 1.63944 18.3613C2.15517 18.877 2.85464 19.1667 3.58398 19.1667H16.4173C17.1467 19.1667 17.8461 18.877 18.3619 18.3613C18.8776 17.8455 19.1673 17.1461 19.1673 16.4167V9.08337H0.833984V16.4167Z" fill="#858EBD"/>
</svg>
