<svg width="51" height="46" viewBox="0 0 51 46" fill="none" xmlns="http://www.w3.org/2000/svg">
<path d="M5.83253 27.5027C2.49057 23.4144 1 19.6282 1 15.5386C1 11.5132 2.36073 7.84115 4.78536 5.17442C7.23508 2.48083 10.5889 1 14.2469 1C16.9612 1 19.4412 1.86491 21.6429 3.59123L21.643 3.59127C22.7598 4.4668 23.7804 5.54506 24.6859 6.81453L25.5 7.95578L26.3141 6.81457C27.22 5.5447 28.2402 4.46683 29.3566 3.59128C31.5588 1.8649 34.0388 1 36.7531 1C40.4111 1 43.7646 2.48084 46.2143 5.17451C48.6393 7.84123 50 11.5133 50 15.5382C50 19.6282 48.5098 23.4144 45.1679 27.5023L45.1679 27.5023C42.1476 31.1972 37.7867 34.9689 32.6271 39.4264L32.627 39.4265L32.5835 39.4641C30.8394 40.9712 28.8607 42.681 26.8074 44.5014L26.8069 44.5019C26.4443 44.8238 25.9799 45 25.5 45C25.02 45 24.5559 44.824 24.1924 44.5012L24.1918 44.5006C22.1235 42.6673 20.1321 40.9467 18.3795 39.4322L18.3742 39.4277L18.3741 39.4276C13.2137 34.9693 8.85284 31.1973 5.83253 27.5027ZM5.83253 27.5027L5.05829 28.1356L5.83253 27.5027Z" stroke="#4B5EFF" stroke-width="2"/>
</svg>
