<svg width="13" height="13" viewBox="0 0 13 13" fill="none" xmlns="http://www.w3.org/2000/svg">
<path d="M10.2916 6.52502C9.9921 6.52502 9.75 6.76772 9.75 7.06665V11.4C9.75 11.6985 9.5073 11.9417 9.20837 11.9417H1.625C1.32597 11.9417 1.08337 11.6985 1.08337 11.4V3.81665C1.08337 3.51821 1.32597 3.27502 1.625 3.27502H5.95837C6.2579 3.27502 6.5 3.03232 6.5 2.73338C6.5 2.43435 6.2579 2.19165 5.95837 2.19165H1.625C0.729088 2.19165 0 2.92074 0 3.81665V11.4C0 12.2959 0.729088 13.025 1.625 13.025H9.20837C10.1043 13.025 10.8334 12.2959 10.8334 11.4V7.06665C10.8334 6.76712 10.5912 6.52502 10.2916 6.52502Z" fill="#686B7B"/>
<path d="M5.07959 6.03151C5.0417 6.0694 5.01621 6.1176 5.0054 6.16957L4.62246 8.08498C4.60461 8.17374 4.63277 8.26529 4.69665 8.32976C4.74812 8.38123 4.81745 8.40881 4.88847 8.40881C4.90572 8.40881 4.92368 8.40722 4.94153 8.40345L6.85634 8.02051C6.9094 8.0096 6.9576 7.98421 6.995 7.94622L11.2807 3.66056L9.36584 1.74585L5.07959 6.03151Z" fill="#686B7B"/>
<path d="M12.6039 0.421499C12.0758 -0.106646 11.2167 -0.106646 10.6891 0.421499L9.93945 1.17112L11.8543 3.08593L12.6039 2.33621C12.8596 2.08111 13.0004 1.74092 13.0004 1.3791C13.0004 1.01729 12.8596 0.677092 12.6039 0.421499Z" fill="#686B7B"/>
</svg>
