<svg width="12" height="17" viewBox="0 0 12 17" fill="none" xmlns="http://www.w3.org/2000/svg">
<path d="M8.5 1.66663H7.414C7.208 1.08463 6.652 0.666626 6 0.666626C5.348 0.666626 4.792 1.08463 4.585 1.66663H3.5C3.224 1.66663 3 1.89063 3 2.16663V4.16663C3 4.44263 3.224 4.66663 3.5 4.66663H8.5C8.776 4.66663 9 4.44263 9 4.16663V2.16663C9 1.89063 8.776 1.66663 8.5 1.66663Z" fill="#858EBD"/>
<path d="M11 2.66644H10V4.16644C10 4.99344 9.327 5.66644 8.5 5.66644H3.5C2.673 5.66644 2 4.99344 2 4.16644V2.66644H1C0.449 2.66644 0 3.11544 0 3.66644V15.6664C0 16.2274 0.439 16.6664 1 16.6664H11C11.561 16.6664 12 16.2274 12 15.6664V3.66644C12 3.10544 11.561 2.66644 11 2.66644ZM5.854 11.5204L3.854 13.5204C3.756 13.6174 3.628 13.6664 3.5 13.6664C3.372 13.6664 3.244 13.6174 3.146 13.5204L2.146 12.5204C1.951 12.3254 1.951 12.0084 2.146 11.8134C2.341 11.6184 2.658 11.6184 2.853 11.8134L3.5 12.4594L5.146 10.8134C5.341 10.6184 5.658 10.6184 5.853 10.8134C6.048 11.0084 6.049 11.3244 5.854 11.5204ZM5.854 7.52044L3.854 9.52044C3.756 9.61744 3.628 9.66644 3.5 9.66644C3.372 9.66644 3.244 9.61744 3.146 9.52044L2.146 8.52044C1.951 8.32544 1.951 8.00844 2.146 7.81344C2.341 7.61844 2.658 7.61844 2.853 7.81344L3.5 8.45944L5.146 6.81344C5.341 6.61844 5.658 6.61844 5.853 6.81344C6.048 7.00844 6.049 7.32444 5.854 7.52044ZM9.5 12.6664H7.5C7.224 12.6664 7 12.4424 7 12.1664C7 11.8904 7.224 11.6664 7.5 11.6664H9.5C9.776 11.6664 10 11.8904 10 12.1664C10 12.4424 9.776 12.6664 9.5 12.6664ZM9.5 8.66644H7.5C7.224 8.66644 7 8.44244 7 8.16644C7 7.89044 7.224 7.66644 7.5 7.66644H9.5C9.776 7.66644 10 7.89044 10 8.16644C10 8.44244 9.776 8.66644 9.5 8.66644Z" fill="#858EBD"/>
</svg>
