<svg width="16" height="16" viewBox="0 0 16 16" fill="none" xmlns="http://www.w3.org/2000/svg">
<path fill-rule="evenodd" clip-rule="evenodd" d="M0.472 7.664L7.672 0.464C7.96 0.176 8.36 0 8.8 0H14.4C15.28 0 16 0.72 16 1.6V7.2C16 7.64 15.824 8.04 15.528 8.336L8.328 15.536C8.04 15.824 7.64 16 7.2 16C6.76 16 6.36 15.824 6.072 15.528L0.472 9.928C0.176 9.64 0 9.24 0 8.8C0 8.36 0.184 7.952 0.472 7.664ZM13.2002 4.00005C13.8642 4.00005 14.4002 3.46405 14.4002 2.80005C14.4002 2.13605 13.8642 1.60005 13.2002 1.60005C12.5362 1.60005 12.0002 2.13605 12.0002 2.80005C12.0002 3.46405 12.5362 4.00005 13.2002 4.00005Z" fill="#858EBD"/>
</svg>
