<svg width="18" height="18" viewBox="0 0 18 18" fill="none" xmlns="http://www.w3.org/2000/svg">
<path d="M8.83189 15.75H2.4877C3.22578 14.8131 3.62552 13.6542 3.62203 12.4615V2.25H13.4093V7.63495C13.4093 7.70954 13.439 7.78108 13.4917 7.83382C13.5445 7.88657 13.616 7.9162 13.6906 7.9162C13.7652 7.9162 13.8367 7.88657 13.8895 7.83382C13.9422 7.78108 13.9718 7.70954 13.9718 7.63495V1.96875C13.9718 1.93181 13.9646 1.89524 13.9504 1.86111C13.9363 1.82698 13.9156 1.79597 13.8895 1.76985C13.8634 1.74374 13.8324 1.72302 13.7982 1.70889C13.7641 1.69476 13.7275 1.68749 13.6906 1.6875H3.34078C3.30385 1.68749 3.26727 1.69476 3.23314 1.70889C3.19901 1.72302 3.16801 1.74374 3.14189 1.76985C3.11577 1.79597 3.09505 1.82698 3.08092 1.86111C3.06679 1.89524 3.05952 1.93181 3.05953 1.96875V12.4615C3.06126 13.0878 2.93876 13.7082 2.69913 14.2868C2.45949 14.8654 2.10747 15.3907 1.66344 15.8324C1.62411 15.8717 1.59732 15.9218 1.58646 15.9764C1.57561 16.0309 1.58117 16.0875 1.60246 16.1389C1.62375 16.1903 1.65979 16.2342 1.70604 16.2651C1.7523 16.296 1.80667 16.3125 1.8623 16.3125H8.83189C8.90648 16.3125 8.97802 16.2829 9.03076 16.2301C9.08351 16.1774 9.11314 16.1058 9.11314 16.0312C9.11314 15.9567 9.08351 15.8851 9.03076 15.8324C8.97802 15.7796 8.90648 15.75 8.83189 15.75Z" fill="#4B5EFF"/>
<path d="M11.7419 5.23004H5.29004C5.21545 5.23004 5.14391 5.25967 5.09117 5.31242C5.03842 5.36516 5.00879 5.4367 5.00879 5.51129C5.00879 5.58588 5.03842 5.65742 5.09117 5.71017C5.14391 5.76291 5.21545 5.79254 5.29004 5.79254H11.7419C11.8165 5.79254 11.888 5.76291 11.9408 5.71017C11.9935 5.65742 12.0232 5.58588 12.0232 5.51129C12.0232 5.4367 11.9935 5.36516 11.9408 5.31242C11.888 5.25967 11.8165 5.23004 11.7419 5.23004Z" fill="#4B5EFF"/>
<path d="M12.0232 7.41687C12.0232 7.37993 12.0159 7.34336 12.0018 7.30923C11.9876 7.2751 11.9669 7.24409 11.9408 7.21797C11.9147 7.19186 11.8837 7.17114 11.8496 7.15701C11.8154 7.14288 11.7789 7.13561 11.7419 7.13562H5.29004C5.21545 7.13562 5.14391 7.16525 5.09117 7.218C5.03842 7.27074 5.00879 7.34228 5.00879 7.41687C5.00879 7.49146 5.03842 7.563 5.09117 7.61574C5.14391 7.66849 5.21545 7.69812 5.29004 7.69812H11.7419C11.7789 7.69813 11.8154 7.69086 11.8496 7.67673C11.8837 7.6626 11.9147 7.64188 11.9408 7.61577C11.9669 7.58965 11.9876 7.55864 12.0018 7.52451C12.0159 7.49038 12.0232 7.45381 12.0232 7.41687Z" fill="#4B5EFF"/>
<path d="M9.21889 9.32245C9.2189 9.28551 9.21163 9.24893 9.1975 9.21481C9.18337 9.18068 9.16265 9.14967 9.13653 9.12355C9.11041 9.09743 9.07941 9.07672 9.04528 9.06259C9.01115 9.04846 8.97457 9.04119 8.93764 9.0412H5.29004C5.21545 9.0412 5.14391 9.07083 5.09117 9.12357C5.03842 9.17632 5.00879 9.24786 5.00879 9.32245C5.00879 9.39704 5.03842 9.46858 5.09117 9.52132C5.14391 9.57407 5.21545 9.6037 5.29004 9.6037H8.93764C8.97457 9.60371 9.01115 9.59644 9.04528 9.58231C9.07941 9.56818 9.11041 9.54746 9.13653 9.52134C9.16265 9.49523 9.18337 9.46422 9.1975 9.43009C9.21163 9.39596 9.2189 9.35939 9.21889 9.32245Z" fill="#4B5EFF"/>
<path d="M5.29004 10.9468C5.21545 10.9468 5.14391 10.9764 5.09117 11.0292C5.03842 11.0819 5.00879 11.1534 5.00879 11.228C5.00879 11.3026 5.03842 11.3742 5.09117 11.4269C5.14391 11.4796 5.21545 11.5093 5.29004 11.5093H7.58412C7.65871 11.5093 7.73025 11.4796 7.783 11.4269C7.83574 11.3742 7.86537 11.3026 7.86537 11.228C7.86537 11.1534 7.83574 11.0819 7.783 11.0292C7.73025 10.9764 7.65871 10.9468 7.58412 10.9468H5.29004Z" fill="#4B5EFF"/>
<path d="M15.3537 10.106C14.8832 9.63477 14.2923 9.30189 13.6455 9.14376C12.9987 8.98564 12.3209 9.00835 11.6861 9.20942C11.0513 9.41049 10.484 9.78218 10.0462 10.2839C9.60835 10.7856 9.31686 11.3979 9.20356 12.0541L8.98007 11.8306C8.92733 11.7779 8.8558 11.7482 8.78122 11.7482C8.70664 11.7482 8.63511 11.7779 8.58237 11.8306C8.52963 11.8833 8.5 11.9549 8.5 12.0295C8.5 12.104 8.52963 12.1756 8.58237 12.2283L9.22956 12.8755C9.28243 12.9281 9.354 12.9576 9.4286 12.9576C9.5032 12.9576 9.57476 12.9281 9.62764 12.8755L10.275 12.2283C10.3277 12.1756 10.3573 12.104 10.3573 12.0295C10.3573 11.9549 10.3277 11.8833 10.275 11.8306C10.2222 11.7779 10.1507 11.7482 10.0761 11.7482C10.0015 11.7482 9.92999 11.7779 9.87725 11.8306L9.81337 11.8945C9.98631 11.2406 10.3703 10.662 10.9058 10.2488C11.4412 9.83553 12.0982 9.61064 12.7746 9.60904C13.4509 9.60745 14.1089 9.82925 14.6463 10.24C15.1837 10.6507 15.5705 11.2274 15.7465 11.8805C15.9225 12.5336 15.8779 13.2265 15.6197 13.8517C15.3615 14.4768 14.9041 14.9992 14.3185 15.3378C13.7329 15.6763 13.052 15.812 12.3813 15.7237C11.7107 15.6355 11.088 15.3284 10.6099 14.8499C10.5572 14.7972 10.4856 14.7676 10.4111 14.7676C10.3365 14.7676 10.2649 14.7972 10.2122 14.8499C10.1595 14.9027 10.1298 14.9742 10.1298 15.0488C10.1298 15.1234 10.1595 15.1949 10.2122 15.2476C10.8941 15.9289 11.8187 16.3114 12.7826 16.3112C13.7465 16.3109 14.6709 15.9279 15.3525 15.2463C16.0341 14.5647 16.4171 13.6403 16.4173 12.6764C16.4175 11.7125 16.0349 10.7879 15.3537 10.106H15.3537Z" fill="#4B5EFF"/>
<path d="M12.7822 10.2417C12.7453 10.2417 12.7087 10.249 12.6746 10.2631C12.6405 10.2772 12.6094 10.2979 12.5833 10.3241C12.5572 10.3502 12.5365 10.3812 12.5224 10.4153C12.5082 10.4494 12.501 10.486 12.501 10.5229V12.6768C12.5014 12.7514 12.5311 12.8229 12.5836 12.8759L13.6029 13.8952C13.6558 13.9474 13.7271 13.9765 13.8014 13.9763C13.8756 13.9761 13.9468 13.9464 13.9993 13.8939C14.0518 13.8414 14.0814 13.7703 14.0817 13.696C14.0819 13.6217 14.0528 13.5504 14.0006 13.4975L13.0635 12.5604V10.5229C13.0635 10.486 13.0562 10.4494 13.0421 10.4153C13.028 10.3812 13.0072 10.3502 12.9811 10.3241C12.955 10.2979 12.924 10.2772 12.8899 10.2631C12.8557 10.249 12.8192 10.2417 12.7822 10.2417Z" fill="#4B5EFF"/>
</svg>
