<svg width="16" height="16" viewBox="0 0 16 16" fill="none" xmlns="http://www.w3.org/2000/svg">
<path d="M12.6664 7.99948C12.2978 7.99948 11.9998 8.29818 11.9998 8.66609V13.9994C11.9998 14.3667 11.7011 14.666 11.3332 14.666H1.99996C1.63193 14.666 1.33335 14.3667 1.33335 13.9994V4.66616C1.33335 4.29886 1.63193 3.99955 1.99996 3.99955H7.33324C7.70189 3.99955 7.99986 3.70085 7.99986 3.33293C7.99986 2.9649 7.70189 2.6662 7.33324 2.6662H1.99996C0.897323 2.6662 0 3.56352 0 4.66616V13.9994C0 15.102 0.897323 15.9993 1.99996 15.9993H11.3332C12.4358 15.9993 13.3331 15.102 13.3331 13.9994V8.66609C13.3331 8.29744 13.035 7.99948 12.6664 7.99948Z" fill="#858EBD"/>
<path d="M6.25074 7.39193C6.20411 7.43856 6.17274 7.49789 6.15943 7.56185L5.68813 9.91923C5.66616 10.0285 5.70082 10.1412 5.77944 10.2205C5.84279 10.2838 5.92812 10.3178 6.01552 10.3178C6.03676 10.3178 6.05885 10.3158 6.08082 10.3112L8.43747 9.83989C8.50278 9.82646 8.5621 9.79521 8.60812 9.74846L13.8827 4.4739L11.526 2.11737L6.25074 7.39193Z" fill="#858EBD"/>
<path d="M15.5117 0.487448C14.8618 -0.162564 13.8044 -0.162564 13.155 0.487448L12.2324 1.41004L14.5891 3.76669L15.5117 2.84397C15.8264 2.53001 15.9997 2.11132 15.9997 1.66602C15.9997 1.22071 15.8264 0.802018 15.5117 0.487448Z" fill="#858EBD"/>
</svg>
