<svg width="24" height="24" viewBox="0 0 24 24" fill="none" xmlns="http://www.w3.org/2000/svg">
<path d="M12 0C10.4087 0 8.88258 0.632141 7.75736 1.75736C6.63214 2.88258 6 4.4087 6 6V7H8V6C8 4.93913 8.42143 3.92172 9.17157 3.17157C9.92172 2.42143 10.9391 2 12 2C13.0609 2 14.0783 2.42143 14.8284 3.17157C15.5786 3.92172 16 4.93913 16 6V7H18V6C18 4.4087 17.3679 2.88258 16.2426 1.75736C15.1174 0.632141 13.5913 0 12 0V0Z" fill="#222653"/>
<path d="M18 9H6C5.20435 9 4.44129 9.31607 3.87868 9.87868C3.31607 10.4413 3 11.2044 3 12V20C3 20.7956 3.31607 21.5587 3.87868 22.1213C4.44129 22.6839 5.20435 23 6 23H18C18.7956 23 19.5587 22.6839 20.1213 22.1213C20.6839 21.5587 21 20.7956 21 20V12C21 11.2044 20.6839 10.4413 20.1213 9.87868C19.5587 9.31607 18.7956 9 18 9ZM13 16.73V19C13 19.2652 12.8946 19.5196 12.7071 19.7071C12.5196 19.8946 12.2652 20 12 20C11.7348 20 11.4804 19.8946 11.2929 19.7071C11.1054 19.5196 11 19.2652 11 19V16.73C10.6187 16.5099 10.3207 16.1701 10.1522 15.7633C9.98376 15.3566 9.9542 14.9056 10.0681 14.4803C10.1821 14.055 10.4332 13.6793 10.7825 13.4112C11.1318 13.1432 11.5597 12.9979 12 12.9979C12.4403 12.9979 12.8682 13.1432 13.2175 13.4112C13.5668 13.6793 13.8179 14.055 13.9319 14.4803C14.0458 14.9056 14.0162 15.3566 13.8478 15.7633C13.6793 16.1701 13.3813 16.5099 13 16.73Z" fill="#222653"/>
</svg>
