<svg width="23" height="20" viewBox="0 0 23 20" fill="none" xmlns="http://www.w3.org/2000/svg">
<path d="M22.2223 3.33334V2.77792C22.2205 1.24451 20.9778 0.00183109 19.4444 0H2.77771C1.2443 0.00183109 0.00183105 1.24451 0 2.77792V3.33334H22.2223Z" fill="#858EBD"/>
<path d="M0 4.44434V17.2221C0.00183105 18.7555 1.2443 19.9981 2.77771 19.9998H19.4444C20.9778 19.9981 22.2205 18.7555 22.2223 17.2221V4.44434H0ZM3.33334 8.33309C3.33334 8.18579 3.39173 8.04439 3.49589 7.94023C3.60026 7.83606 3.74146 7.77747 3.88896 7.77767H8.33334C8.48064 7.77747 8.62204 7.83606 8.7262 7.94023C8.83057 8.04439 8.88896 8.18579 8.88896 8.33309V11.6664C8.88896 11.8139 8.83057 11.9551 8.7262 12.0595C8.62204 12.1637 8.48064 12.2221 8.33334 12.2221H3.88896C3.74146 12.2221 3.60026 12.1637 3.49589 12.0595C3.39173 11.9551 3.33334 11.8139 3.33334 11.6664V8.33309ZM18.3333 15.5554H3.88896C3.58216 15.5554 3.33334 15.3066 3.33334 14.9998C3.33334 14.693 3.58216 14.4443 3.88896 14.4443H18.3333C18.6401 14.4443 18.889 14.693 18.889 14.9998C18.889 15.3066 18.6401 15.5554 18.3333 15.5554ZM18.3333 12.2221H11.6667C11.3599 12.2221 11.1111 11.9732 11.1111 11.6664C11.1111 11.3596 11.3599 11.111 11.6667 11.111H18.3333C18.6401 11.111 18.889 11.3596 18.889 11.6664C18.889 11.9732 18.6401 12.2221 18.3333 12.2221ZM18.3333 8.88871H11.6667C11.3599 8.88871 11.1111 8.63989 11.1111 8.33309C11.1111 8.02629 11.3599 7.77767 11.6667 7.77767H18.3333C18.6401 7.77767 18.889 8.02629 18.889 8.33309C18.889 8.63989 18.6401 8.88871 18.3333 8.88871Z" fill="#858EBD"/>
<path d="M4.44531 8.88916H7.77865V11.1115H4.44531V8.88916Z" fill="#858EBD"/>
<rect x="2.22266" y="6.66675" width="18.889" height="11.1112" fill="#858EBD"/>
<rect x="3.33594" y="6.66675" width="3.58976" height="3.58976" rx="1.79488" fill="#F8F8FF"/>
<rect x="9.31641" y="6.66675" width="3.58976" height="3.58976" rx="1.79488" fill="#F8F8FF"/>
<rect x="15.3047" y="6.66675" width="3.58976" height="3.58976" rx="1.79488" fill="#F8F8FF"/>
<rect x="3.33594" y="12.6492" width="3.58976" height="3.58976" rx="1.79488" fill="#F8F8FF"/>
<rect x="9.31641" y="12.6492" width="3.58976" height="3.58976" rx="1.79488" fill="#F8F8FF"/>
<rect x="15.3047" y="12.6492" width="3.58976" height="3.58976" rx="1.79488" fill="#F8F8FF"/>
</svg>
