<svg width="27" height="27" viewBox="0 0 27 27" fill="none" xmlns="http://www.w3.org/2000/svg">
<path fill-rule="evenodd" clip-rule="evenodd" d="M13.5 24.125C14.6917 24.125 15.6667 23.15 15.6667 21.9583H11.3333C11.3333 23.15 12.2975 24.125 13.5 24.125ZM20 17.625V12.2083C20 8.8825 18.2233 6.09833 15.125 5.36167V4.625C15.125 3.72583 14.3992 3 13.5 3C12.6008 3 11.875 3.72583 11.875 4.625V5.36167C8.76583 6.09833 6.99999 8.87167 6.99999 12.2083V17.625L5.60249 19.0225C4.91999 19.705 5.39666 20.875 6.36083 20.875H20.6283C21.5925 20.875 22.08 19.705 21.3975 19.0225L20 17.625Z" fill="#858EBD"/>
</svg>
