<svg width="22" height="22" viewBox="0 0 22 22" fill="none" xmlns="http://www.w3.org/2000/svg">
<g clip-path="url(#clip0_1201_5788)">
<path d="M17.4166 11.0424C16.9097 11.0424 16.5 11.4531 16.5 11.959V19.2924C16.5 19.7974 16.0893 20.209 15.5834 20.209H2.75C2.24394 20.209 1.83339 19.7974 1.83339 19.2924V6.45898C1.83339 5.95393 2.24394 5.54237 2.75 5.54237H10.0834C10.5903 5.54237 11 5.13165 11 4.62576C11 4.11971 10.5903 3.70898 10.0834 3.70898H2.75C1.23384 3.70898 0 4.94283 0 6.45898V19.2924C0 20.8085 1.23384 22.0424 2.75 22.0424H15.5834C17.0995 22.0424 18.3334 20.8085 18.3334 19.2924V11.959C18.3334 11.4521 17.9235 11.0424 17.4166 11.0424Z" fill="#858EBD"/>
<path d="M8.5946 10.2072C8.53048 10.2714 8.48735 10.3529 8.46905 10.4409L7.82099 13.6823C7.79078 13.8326 7.83845 13.9875 7.94654 14.0966C8.03366 14.1837 8.15098 14.2304 8.27116 14.2304C8.30036 14.2304 8.33075 14.2277 8.36096 14.2213L11.6014 13.5732C11.6912 13.5548 11.7728 13.5118 11.8361 13.4475L19.0887 6.19487L15.8483 2.95459L8.5946 10.2072Z" fill="#858EBD"/>
<path d="M21.329 0.713306C20.4354 -0.180477 18.9815 -0.180477 18.0885 0.713306L16.8199 1.98189L20.0604 5.22234L21.329 3.95359C21.7617 3.52188 22 2.94617 22 2.33387C22 1.72156 21.7617 1.14585 21.329 0.713306Z" fill="#858EBD"/>
</g>
<defs>
<clipPath id="clip0_1201_5788">
<rect width="22" height="22" fill="white"/>
</clipPath>
</defs>
</svg>
