<svg width="28" height="26" viewBox="0 0 28 26" fill="none" xmlns="http://www.w3.org/2000/svg">
<path d="M11.4765 23.5925C12.7386 23.5925 13.7617 22.5694 13.7617 21.3074C13.7617 20.0453 12.7386 19.0222 11.4765 19.0222C10.2144 19.0222 9.19135 20.0453 9.19135 21.3074C9.19135 22.5694 10.2144 23.5925 11.4765 23.5925Z" fill="#858EBD"/>
<path d="M19.1444 23.5925C20.4065 23.5925 21.4296 22.5694 21.4296 21.3074C21.4296 20.0453 20.4065 19.0222 19.1444 19.0222C17.8824 19.0222 16.8593 20.0453 16.8593 21.3074C16.8593 22.5694 17.8824 23.5925 19.1444 23.5925Z" fill="#858EBD"/>
<path d="M0.761714 2.26445H3.93822L7.61567 15.1381L7.32723 15.7149C6.56775 17.2323 7.67026 19.0222 9.37137 19.0222H22.1913C22.6123 19.0222 22.953 18.6815 22.953 18.2604C22.953 17.8394 22.6123 17.4987 22.1913 17.4987H9.37137C8.80572 17.4987 8.43604 16.9031 8.68999 16.3963L8.90053 15.9753H22.1913C22.5312 15.9753 22.8303 15.7499 22.924 15.4226L25.9709 4.7586C26.0363 4.52877 25.9902 4.28177 25.8466 4.09063C25.7023 3.9002 25.477 3.78787 25.2382 3.78787H5.95777L5.24516 1.29367C5.15142 0.966383 4.85243 0.740967 4.51245 0.740967H0.761714C0.340689 0.740967 0 1.08166 0 1.50268C0 1.92371 0.340689 2.26445 0.761714 2.26445Z" fill="#858EBD"/>
</svg>
