<svg width="20" height="20" viewBox="0 0 20 20" fill="none" xmlns="http://www.w3.org/2000/svg">
<path d="M9.16667 6.16666V10.8333H13.0667V9.16666H10.8333V6.16666H9.16667ZM15.3 4.69999C13.8937 3.29549 11.9875 2.50659 10 2.50659C8.01249 2.50659 6.10625 3.29549 4.7 4.69999L4.16667 5.25833L2.5 3.59166V8.33333H7.21667L5.31667 6.43333L5.875 5.87499C6.80709 4.95233 8.02293 4.37069 9.32622 4.22397C10.6295 4.07726 11.9442 4.37403 13.0581 5.06637C14.172 5.75872 15.0201 6.80624 15.4655 8.03984C15.9108 9.27344 15.9275 10.6211 15.5128 11.8654C15.098 13.1096 14.2761 14.1777 13.1796 14.8974C12.0832 15.6171 10.7762 15.9462 9.46967 15.8318C8.16314 15.7173 6.93331 15.1659 5.9787 14.2665C5.02409 13.3672 4.40041 12.1724 4.20833 10.875H2.54167C2.75624 12.7017 3.63457 14.3858 5.00967 15.6073C6.38476 16.8288 8.16075 17.5023 10 17.5C11.4824 17.4987 12.9312 17.0581 14.1633 16.2339C15.3955 15.4097 16.3558 14.2389 16.9229 12.8692C17.49 11.4996 17.6385 9.99262 17.3497 8.53863C17.0608 7.08464 16.3476 5.74886 15.3 4.69999Z" fill="#F7931A"/>
</svg>
