<svg width="41" height="40" viewBox="0 0 41 40" fill="none" xmlns="http://www.w3.org/2000/svg">
<path d="M40.0749 20.4405C39.9694 20.6973 39.7902 20.9171 39.56 21.0723C39.3298 21.2274 39.0588 21.311 38.7811 21.3124H34.5624V35.3749C34.5624 36.4937 34.1179 37.5668 33.3267 38.358C32.5356 39.1491 31.4625 39.5936 30.3436 39.5936H24.7186C24.3457 39.5936 23.988 39.4454 23.7243 39.1817C23.4605 38.918 23.3124 38.5603 23.3124 38.1874V29.7499C23.3124 29.3769 23.1642 29.0192 22.9005 28.7555C22.6368 28.4918 22.2791 28.3436 21.9061 28.3436H19.0936C18.7207 28.3436 18.363 28.4918 18.0993 28.7555C17.8355 29.0192 17.6874 29.3769 17.6874 29.7499V38.1874C17.6874 38.5603 17.5392 38.918 17.2755 39.1817C17.0118 39.4454 16.6541 39.5936 16.2811 39.5936H10.6561C9.53726 39.5936 8.4642 39.1491 7.67303 38.358C6.88187 37.5668 6.43739 36.4937 6.43739 35.3749V21.3124H2.21864C1.94101 21.311 1.67 21.2274 1.43977 21.0723C1.20954 20.9171 1.03039 20.6973 0.924891 20.4405C0.817201 20.1844 0.787779 19.9021 0.840336 19.6293C0.892893 19.3565 1.02508 19.1054 1.2202 18.9077L19.5015 0.626416C19.6322 0.49461 19.7877 0.389993 19.9591 0.3186C20.1304 0.247206 20.3142 0.210449 20.4999 0.210449C20.6855 0.210449 20.8693 0.247206 21.0407 0.3186C21.2121 0.389993 21.3676 0.49461 21.4983 0.626416L39.7796 18.9077C39.9747 19.1054 40.1069 19.3565 40.1594 19.6293C40.212 19.9021 40.1826 20.1844 40.0749 20.4405Z" fill="white"/>
</svg>
