<svg width="16" height="14" viewBox="0 0 16 14" fill="none" xmlns="http://www.w3.org/2000/svg">
<path d="M15.75 6.26706C15.7475 7.68569 15.2719 8.97916 13.9565 10.1849C13.6558 10.4602 14.0439 12.173 14.9903 13.397C15.0174 13.4307 15.0338 13.4718 15.0374 13.5149C15.041 13.5579 15.0316 13.6011 15.0104 13.6388C14.9892 13.6765 14.9572 13.707 14.9186 13.7264C14.8799 13.7457 14.8363 13.7531 14.7935 13.7475C12.2285 13.3675 11.0486 12.4006 10.6574 12.0968C10.622 12.0694 10.5807 12.0506 10.5368 12.0417C10.4929 12.0328 10.4476 12.0342 10.4043 12.0456C9.5851 12.2539 8.74302 12.3585 7.89778 12.357C3.53531 12.357 0 9.64656 0 6.30334C0 2.96013 3.53531 0.25 7.89638 0.25C12.2093 0.25 15.7559 3.01525 15.75 6.26706Z" fill="#858EBD"/>
</svg>
