<svg width="17" height="15" viewBox="0 0 17 15" fill="none" xmlns="http://www.w3.org/2000/svg">
<path d="M10.6253 3.60425C10.2343 3.60425 9.91699 3.28691 9.91699 2.89591V1.83341H7.08366V2.89591C7.08366 3.28691 6.76633 3.60425 6.37533 3.60425C5.98433 3.60425 5.66699 3.28691 5.66699 2.89591V1.83341C5.66699 1.05212 6.30237 0.416748 7.08366 0.416748H9.91699C10.6983 0.416748 11.3337 1.05212 11.3337 1.83341V2.89591C11.3337 3.28691 11.0163 3.60425 10.6253 3.60425Z" fill="#858EBD"/>
<path d="M9.00292 9.89429C8.87542 9.94387 8.69125 9.97929 8.5 9.97929C8.30875 9.97929 8.12458 9.94387 7.95458 9.88012L0 7.23096V12.6355C0 13.7122 0.87125 14.5835 1.94792 14.5835H15.0521C16.1287 14.5835 17 13.7122 17 12.6355V7.23096L9.00292 9.89429Z" fill="#858EBD"/>
<path d="M17 4.48966V6.11175L8.67 8.88841C8.61333 8.90966 8.55667 8.91675 8.5 8.91675C8.44333 8.91675 8.38667 8.90966 8.33 8.88841L0 6.11175V4.48966C0 3.413 0.87125 2.54175 1.94792 2.54175H15.0521C16.1287 2.54175 17 3.413 17 4.48966Z" fill="#858EBD"/>
</svg>
