<svg width="16" height="14" viewBox="0 0 16 14" fill="none" xmlns="http://www.w3.org/2000/svg">
<path d="M13.091 12.2002C13.091 12.4009 12.9281 12.5638 12.7274 12.5638H10.1819C9.98103 12.5638 9.81816 12.4009 9.81816 12.2002V6.92445C9.35792 6.94427 8.87129 6.95572 8.36366 6.96027V10.7453C8.36366 10.9464 8.2008 11.1092 8.00009 11.1092H3.6366C3.43572 11.1092 3.27286 10.9464 3.27286 10.7453V6.69394C2.71106 6.62657 2.2246 6.55504 1.81836 6.48633V12.5638C1.81836 12.9652 2.14403 13.2908 2.54561 13.2908H13.4546C13.8564 13.2908 14.1821 12.9652 14.1821 12.5638V6.48633C13.8647 6.53977 13.5035 6.5953 13.091 6.64886V12.2002Z" fill="#858EBD"/>
<path d="M15.8514 4.3414L13.3061 0.996241C13.1685 0.815354 12.9544 0.709473 12.7273 0.709473H3.27273C3.04564 0.709473 2.83157 0.815411 2.69391 0.996241L0.148428 4.3414C0.00190065 4.53413 -0.0392507 4.78755 0.0388975 5.01638C0.117214 5.24555 0.3045 5.42121 0.538383 5.48409C0.65263 5.51463 3.38871 6.23616 8.00002 6.23616C12.6113 6.23616 15.3473 5.51458 15.4619 5.48409C15.6955 5.42121 15.8827 5.24555 15.9612 5.01638C16.0393 4.78755 15.998 4.53407 15.8514 4.3414Z" fill="#858EBD"/>
<path d="M12.3636 9.29073C12.5644 9.29073 12.7273 9.12793 12.7273 8.9271C12.7273 8.72628 12.5644 8.56348 12.3636 8.56348C12.1628 8.56348 12 8.72628 12 8.9271C12 9.12793 12.1628 9.29073 12.3636 9.29073Z" fill="#858EBD"/>
</svg>
