<svg width="20" height="18" viewBox="0 0 20 18" fill="none" xmlns="http://www.w3.org/2000/svg">
<path d="M18.8843 13.2758L12.3956 1.67467C11.904 0.691524 10.9209 0.199951 9.83941 0.199951C8.75794 0.199951 7.7748 0.691524 7.28322 1.67467L0.794461 13.2758C0.302888 14.1606 0.302888 15.3404 0.794461 16.2252C1.28603 17.1101 2.26918 17.7 3.35064 17.7H16.3282C17.4096 17.7 18.2945 17.1101 18.8843 16.2252C19.4742 15.3404 19.3759 14.2589 18.8843 13.2758ZM17.213 15.2421C17.1147 15.3404 16.9181 15.7337 16.3282 15.7337H3.35064C2.85907 15.7337 2.56412 15.4387 2.46581 15.2421C2.36749 15.0455 2.17087 14.7505 2.46581 14.2589L8.95457 2.5595C9.24952 2.06793 9.64278 2.06793 9.83941 2.06793C10.036 2.06793 10.4293 2.06793 10.7242 2.5595L17.213 14.2589C17.4096 14.7505 17.213 15.1438 17.213 15.2421Z" fill="#FF2855"/>
<path d="M9.83861 5.90234C9.24873 5.90234 8.85547 6.2956 8.85547 6.88549V9.83493C8.85547 10.4248 9.24873 10.8181 9.83861 10.8181C10.4285 10.8181 10.8218 10.4248 10.8218 9.83493V6.88549C10.8218 6.2956 10.4285 5.90234 9.83861 5.90234Z" fill="#FF2855"/>
<path d="M9.83861 13.7673C10.3816 13.7673 10.8218 13.3271 10.8218 12.7842C10.8218 12.2412 10.3816 11.801 9.83861 11.801C9.29564 11.801 8.85547 12.2412 8.85547 12.7842C8.85547 13.3271 9.29564 13.7673 9.83861 13.7673Z" fill="#FF2855"/>
</svg>
