<svg width="36" height="35" viewBox="0 0 36 35" fill="none" xmlns="http://www.w3.org/2000/svg">
<path fill-rule="evenodd" clip-rule="evenodd" d="M19.2453 28.1382V28.7877C19.2453 29.6052 18.6414 30.277 17.9066 30.277H17.8965C17.1618 30.277 16.5578 29.6052 16.5578 28.7877V28.1158C15.2191 27.8023 14.0314 26.9848 13.5281 25.6075C13.2966 24.9916 13.7294 24.3085 14.3333 24.3085H14.5749C14.9473 24.3085 15.2493 24.5885 15.3902 24.9804C15.6821 25.8203 16.4471 26.4026 17.9167 26.4026C19.8895 26.4026 20.3324 25.3052 20.3324 24.6221C20.3324 23.6927 19.8895 22.8192 17.6449 22.2257C15.1486 21.5539 13.4375 20.4117 13.4375 18.1161C13.4375 16.1901 14.8366 14.9359 16.5679 14.5216V13.8497C16.5679 13.0322 17.1718 12.3604 17.9066 12.3604H17.9167C18.6515 12.3604 19.2554 13.0322 19.2554 13.8497V14.544C20.6444 14.9247 21.5201 15.8877 21.9026 17.0747C22.1039 17.6906 21.6812 18.3401 21.0873 18.3401H20.8256C20.4532 18.3401 20.1512 18.0489 20.0506 17.6458C19.8191 16.7947 19.1849 16.246 17.9167 16.246C16.4068 16.246 15.5009 17.0075 15.5009 18.0825C15.5009 19.0231 16.1552 19.639 18.1884 20.2213C20.2217 20.8036 22.3958 21.7778 22.3958 24.5997C22.3757 26.6489 20.9967 27.7687 19.2453 28.1382ZM32.25 7.88139H25.0833V4.29806C25.0833 2.30931 23.4888 0.714722 21.5 0.714722H14.3333C12.3446 0.714722 10.75 2.30931 10.75 4.29806V7.88139H3.58333C1.59458 7.88139 0.0179167 9.47597 0.0179167 11.4647L0 31.1731C0 33.1618 1.59458 34.7564 3.58333 34.7564H32.25C34.2388 34.7564 35.8333 33.1618 35.8333 31.1731V11.4647C35.8333 9.47597 34.2388 7.88139 32.25 7.88139ZM21.4993 7.8812H14.3326V4.29787H21.4993V7.8812Z" fill="#858EBD"/>
</svg>
