<svg width="42" height="36" viewBox="0 0 42 36" fill="none" xmlns="http://www.w3.org/2000/svg">
<path d="M17.2887 33.6006C19.1444 33.6006 20.6488 32.0962 20.6488 30.2405C20.6488 28.3848 19.1444 26.8805 17.2887 26.8805C15.4331 26.8805 13.9287 28.3848 13.9287 30.2405C13.9287 32.0962 15.4331 33.6006 17.2887 33.6006Z" fill="#858EBD"/>
<path d="M28.5641 33.6006C30.4198 33.6006 31.9242 32.0962 31.9242 30.2405C31.9242 28.3848 30.4198 26.8805 28.5641 26.8805C26.7084 26.8805 25.2041 28.3848 25.2041 30.2405C25.2041 32.0962 26.7084 33.6006 28.5641 33.6006Z" fill="#858EBD"/>
<path d="M1.53407 2.24009H6.20472L11.612 21.1692L11.1878 22.0174C10.0711 24.2484 11.6922 26.8802 14.1935 26.8802H33.0436C33.6626 26.8802 34.1636 26.3793 34.1636 25.7602C34.1636 25.1412 33.6626 24.6402 33.0436 24.6402H14.1935C13.3618 24.6402 12.8182 23.7644 13.1916 23.0193L13.5012 22.4002H33.0436C33.5434 22.4002 33.9831 22.0688 34.1209 21.5875L38.601 5.90743C38.6972 5.56949 38.6294 5.20631 38.4183 4.92526C38.2061 4.64526 37.8748 4.4801 37.5237 4.4801H9.17423L8.12643 0.812676C7.98859 0.331447 7.54895 0 7.04905 0H1.53407C0.915004 0 0.414062 0.500941 0.414062 1.12001C0.414062 1.73907 0.915004 2.24009 1.53407 2.24009Z" fill="#858EBD"/>
</svg>
