<svg width="37" height="37" viewBox="0 0 37 37" fill="none" xmlns="http://www.w3.org/2000/svg">
<g clip-path="url(#clip0_1095_58789)">
<path d="M19.5859 0C17.1946 0 15.1777 2.01686 15.1777 4.4082C15.1777 6.79954 17.1946 8.81641 19.5859 8.81641C21.9773 8.81641 23.9219 6.79954 23.9219 4.4082C23.9219 2.01686 21.9773 0 19.5859 0Z" fill="#858EBD"/>
<path d="M24.3982 8.81641C23.207 10.1373 21.5007 10.9844 19.5859 10.9844C17.6712 10.9844 15.8927 10.1373 14.7014 8.81641C13.6613 9.96969 13.0098 11.4806 13.0098 13.1523V14.2363C13.0098 14.8355 13.4946 15.3203 14.0938 15.3203H25.0059C25.605 15.3203 26.0898 14.8355 26.0898 14.2363V13.1523C26.0898 11.4806 25.4383 9.96969 24.3982 8.81641Z" fill="#858EBD"/>
<path d="M10.4748 33.2714L4.95075 22.1963C4.41735 21.1268 3.11917 20.6907 2.04841 21.2212L0.604619 21.9364C0.0670345 22.203 -0.151714 22.8564 0.116609 23.393L6.62051 36.4008C6.88797 36.9373 7.53858 37.1507 8.07183 36.8877L9.49705 36.1816C10.572 35.6492 11.0101 34.3449 10.4748 33.2714Z" fill="#858EBD"/>
<path d="M36.1131 17.9002C35.2242 17.2498 33.9884 17.3798 33.2514 18.182L27.3256 25.4664C26.9137 25.9 26.1332 26.1601 25.7213 26.1601H20.6699C20.0628 26.1601 19.5859 25.6832 19.5859 25.0761C19.5859 24.469 20.0628 23.9922 20.6699 23.9922C22.1217 23.9922 23.729 23.9922 25.0058 23.9922C26.1982 23.9922 27.1738 23.0166 27.1738 21.8242C27.1738 20.6318 26.1982 19.6562 25.0058 19.6562C19.915 19.6562 24.771 19.6562 19.3257 19.6562C18.7855 19.6562 18.5161 19.3136 18.09 18.9407C16.4128 17.4314 13.9023 16.7043 11.3607 17.2934C9.9495 17.6205 8.99783 18.1906 8.03265 18.955L8.00049 18.9289L6.43262 20.3088L12.5943 32.664H14.4188H25.0058C27.0437 32.664 28.995 31.6884 30.209 30.0625L36.5683 20.957C37.2838 20.003 37.0886 18.6157 36.1131 17.9002Z" fill="#858EBD"/>
</g>
<defs>
<clipPath id="clip0_1095_58789">
<rect width="37" height="37" fill="white"/>
</clipPath>
</defs>
</svg>
