<svg width="39" height="39" viewBox="0 0 39 39" fill="none" xmlns="http://www.w3.org/2000/svg">
<path d="M36.5625 29.25V32.2969C36.5625 33.9775 35.1951 35.3438 33.5156 35.3438H7.3125C4.62394 35.3438 2.4375 33.1573 2.4375 30.4688C2.4375 30.4688 2.4375 9.76828 2.4375 9.75C2.4375 7.06144 4.62394 4.875 7.3125 4.875H29.8594C30.8697 4.875 31.6875 5.694 31.6875 6.70312C31.6875 7.71225 30.8697 8.53125 29.8594 8.53125H7.3125C6.64097 8.53125 6.09375 9.07725 6.09375 9.75C6.09375 10.4227 6.64097 10.9688 7.3125 10.9688H33.5156C35.1951 10.9688 36.5625 12.335 36.5625 14.0156V17.0625H30.4688C27.1087 17.0625 24.375 19.7962 24.375 23.1562C24.375 26.5163 27.1087 29.25 30.4688 29.25H36.5625Z" fill="#858EBD"/>
<path d="M36.5625 19.5V26.8125H30.4688C28.4493 26.8125 26.8125 25.1757 26.8125 23.1562C26.8125 21.1368 28.4493 19.5 30.4688 19.5H36.5625Z" fill="#858EBD"/>
</svg>
