<svg width="36" height="36" viewBox="0 0 36 36" fill="none" xmlns="http://www.w3.org/2000/svg">
<path d="M28.4999 17.9992C27.6704 17.9992 27 18.6713 27 19.4991V31.4992C27 32.3257 26.3279 32.9991 25.5001 32.9991H4.5C3.67191 32.9991 3.00009 32.3257 3.00009 31.4992V10.4991C3.00009 9.6727 3.67191 8.99924 4.5 8.99924H16.5001C17.3296 8.99924 18 8.32715 18 7.49933C18 6.67123 17.3296 5.99915 16.5001 5.99915H4.5C2.01901 5.99915 0 8.01816 0 10.4991V31.4992C0 33.9802 2.01901 35.9992 4.5 35.9992H25.5001C27.9811 35.9992 30.0001 33.9802 30.0001 31.4992V19.4991C30.0001 18.6697 29.3294 17.9992 28.4999 17.9992Z" fill="#858EBD"/>
<path d="M14.0647 16.6327C13.9598 16.7376 13.8892 16.8711 13.8592 17.015L12.7988 22.3192C12.7493 22.565 12.8273 22.8185 13.0042 22.9971C13.1468 23.1396 13.3388 23.216 13.5354 23.216C13.5832 23.216 13.6329 23.2116 13.6824 23.2011L18.9849 22.1407C19.1318 22.1105 19.2653 22.0402 19.3689 21.935L31.2369 10.067L25.9343 4.76471L14.0647 16.6327Z" fill="#858EBD"/>
<path d="M34.9028 1.09716C33.4406 -0.365395 31.0615 -0.365395 29.6003 1.09716L27.5244 3.17303L32.827 8.47558L34.9028 6.39944C35.6109 5.69302 36.0009 4.75094 36.0009 3.74899C36.0009 2.74703 35.6109 1.80495 34.9028 1.09716Z" fill="#858EBD"/>
</svg>
