<svg width="36" height="36" viewBox="0 0 36 36" fill="none" xmlns="http://www.w3.org/2000/svg">
<path d="M35.8995 18.4922C35.803 18.7269 35.6392 18.9279 35.4287 19.0697C35.2181 19.2115 34.9703 19.2879 34.7165 19.2892H30.8588V32.1437C30.8588 33.1664 30.4524 34.1473 29.7289 34.8705C29.0055 35.5937 28.0243 36 27.0012 36H21.8576C21.5166 36 21.1895 35.8646 20.9484 35.6235C20.7072 35.3824 20.5718 35.0555 20.5718 34.7146V27.0019C20.5718 26.6609 20.4363 26.334 20.1951 26.0929C19.954 25.8518 19.6269 25.7164 19.2859 25.7164H16.7141C16.3731 25.7164 16.046 25.8518 15.8049 26.0929C15.5637 26.334 15.4282 26.6609 15.4282 27.0019V34.7146C15.4282 35.0555 15.2928 35.3824 15.0516 35.6235C14.8105 35.8646 14.4834 36 14.1424 36H8.99883C7.97572 36 6.99452 35.5937 6.27107 34.8705C5.54762 34.1473 5.14119 33.1664 5.14119 32.1437V19.2892H1.28355C1.02968 19.2879 0.781873 19.2115 0.571348 19.0697C0.360824 18.9279 0.197005 18.7269 0.100538 18.4922C0.00206628 18.2581 -0.0248378 18.0001 0.0232209 17.7507C0.0712796 17.5014 0.192148 17.2718 0.370573 17.0911L17.087 0.380233C17.2066 0.25975 17.3488 0.16412 17.5055 0.0988599C17.6622 0.0335994 17.8302 0 18 0C18.1698 0 18.3378 0.0335994 18.4945 0.0988599C18.6512 0.16412 18.7934 0.25975 18.913 0.380233L35.6294 17.0911C35.8079 17.2718 35.9287 17.5014 35.9768 17.7507C36.0248 18.0001 35.9979 18.2581 35.8995 18.4922Z" fill="#4B5EFF"/>
</svg>
