<svg width="36" height="36" viewBox="0 0 36 36" fill="none" xmlns="http://www.w3.org/2000/svg">
<g clip-path="url(#clip0_1095_58810)">
<path d="M36.0001 5.45615V4.55637C35.9971 2.07225 33.984 0.0591187 31.4999 0.0561523H4.49989C2.01577 0.0591187 0.0029663 2.07225 0 4.55637V5.45615H36.0001Z" fill="#858EBD"/>
<path d="M0 7.25635V27.9562C0.0029663 30.4404 2.01577 32.4535 4.49989 32.4561H31.4999C33.984 32.4535 35.9971 30.4404 36.0001 27.9562V7.25635H0ZM5.4 13.5561C5.4 13.3175 5.49459 13.0884 5.66334 12.9197C5.83242 12.7509 6.06116 12.656 6.30011 12.6563H13.5C13.7386 12.656 13.9677 12.7509 14.1364 12.9197C14.3055 13.0884 14.4001 13.3175 14.4001 13.5561V18.9561C14.4001 19.1951 14.3055 19.4238 14.1364 19.5929C13.9677 19.7616 13.7386 19.8562 13.5 19.8562H6.30011C6.06116 19.8562 5.83242 19.7616 5.66334 19.5929C5.49459 19.4238 5.4 19.1951 5.4 18.9561V13.5561ZM29.7 25.2562H6.30011C5.80309 25.2562 5.4 24.8531 5.4 24.3561C5.4 23.8591 5.80309 23.4563 6.30011 23.4563H29.7C30.197 23.4563 30.6001 23.8591 30.6001 24.3561C30.6001 24.8531 30.197 25.2562 29.7 25.2562ZM29.7 19.8562H18.9C18.403 19.8562 17.9999 19.4531 17.9999 18.9561C17.9999 18.4591 18.403 18.0563 18.9 18.0563H29.7C30.197 18.0563 30.6001 18.4591 30.6001 18.9561C30.6001 19.4531 30.197 19.8562 29.7 19.8562ZM29.7 14.4562H18.9C18.403 14.4562 17.9999 14.0531 17.9999 13.5561C17.9999 13.0591 18.403 12.6563 18.9 12.6563H29.7C30.197 12.6563 30.6001 13.0591 30.6001 13.5561C30.6001 14.0531 30.197 14.4562 29.7 14.4562Z" fill="#858EBD"/>
<path d="M7.2002 14.4562H12.6002V18.0563H7.2002V14.4562Z" fill="#858EBD"/>
</g>
<defs>
<clipPath id="clip0_1095_58810">
<rect width="36" height="36" fill="white"/>
</clipPath>
</defs>
</svg>
