<svg width="36" height="36" viewBox="0 0 36 36" fill="none" xmlns="http://www.w3.org/2000/svg">
<path d="M30.8036 19.2178H28.0195C28.3033 19.9948 28.4584 20.8333 28.4584 21.7072V32.2294C28.4584 32.5938 28.3949 32.9435 28.2795 33.2688H32.8823C34.6016 33.2688 36.0004 31.87 36.0004 30.1507V24.4146C36.0004 21.5491 33.6691 19.2178 30.8036 19.2178Z" fill="#858EBD"/>
<path d="M7.54207 21.7073C7.54207 20.8333 7.69711 19.9949 7.98089 19.218H5.1968C2.33128 19.218 0 21.5492 0 24.4148V30.1509C0 31.8702 1.39873 33.269 3.11808 33.269H7.72087C7.60549 32.9436 7.54207 32.5939 7.54207 32.2296V21.7073Z" fill="#858EBD"/>
<path d="M21.1827 16.5105H14.8179C11.9524 16.5105 9.62109 18.8418 9.62109 21.7073V32.2296C9.62109 32.8035 10.0864 33.2689 10.6605 33.2689H25.3402C25.9142 33.2689 26.3795 32.8036 26.3795 32.2296V21.7073C26.3795 18.8418 24.0482 16.5105 21.1827 16.5105Z" fill="#858EBD"/>
<path d="M17.9998 2.73096C14.5536 2.73096 11.75 5.5346 11.75 8.98082C11.75 11.3184 13.0402 13.3599 14.9455 14.4317C15.8492 14.9401 16.8911 15.2306 17.9998 15.2306C19.1085 15.2306 20.1504 14.9401 21.0541 14.4317C22.9595 13.3599 24.2496 11.3183 24.2496 8.98082C24.2496 5.53467 21.446 2.73096 17.9998 2.73096Z" fill="#858EBD"/>
<path d="M7.02559 8.55627C4.44828 8.55627 2.35156 10.653 2.35156 13.2303C2.35156 15.8076 4.44828 17.9043 7.02559 17.9043C7.67935 17.9043 8.3019 17.7689 8.86742 17.5255C9.84519 17.1045 10.6514 16.3593 11.1503 15.4259C11.5004 14.7708 11.6996 14.0235 11.6996 13.2303C11.6996 10.6531 9.60289 8.55627 7.02559 8.55627Z" fill="#858EBD"/>
<path d="M28.9748 8.55627C26.3975 8.55627 24.3008 10.653 24.3008 13.2303C24.3008 14.0236 24.5 14.7709 24.8501 15.4259C25.349 16.3594 26.1552 17.1046 27.133 17.5255C27.6985 17.7689 28.321 17.9043 28.9748 17.9043C31.5521 17.9043 33.6488 15.8076 33.6488 13.2303C33.6488 10.653 31.5521 8.55627 28.9748 8.55627Z" fill="#858EBD"/>
</svg>
