<svg width="36" height="36" viewBox="0 0 36 36" fill="none" xmlns="http://www.w3.org/2000/svg">
<path d="M21.4521 13.6873C21.4521 12.9327 20.9709 12.2953 20.4013 12.2953C19.8318 12.2953 19.3506 12.9327 19.3506 13.6873C19.3506 14.4418 19.8318 15.0792 20.4013 15.0792C20.9709 15.0792 21.4521 14.4418 21.4521 13.6873Z" fill="#858EBD"/>
<path d="M34.9453 5.69531H12.0234V8.15625C12.0234 8.73872 11.5512 9.21094 10.9688 9.21094C10.3863 9.21094 9.91406 8.73872 9.91406 8.15625V5.69531H1.05469C0.472219 5.69531 0 6.16753 0 6.75V10.5C0 11.0824 0.472219 11.5547 1.05469 11.5547C2.02395 11.5547 2.8125 12.3432 2.8125 13.3125C2.8125 14.2817 2.02395 15.0703 1.05469 15.0703C0.472219 15.0703 0 15.5425 0 16.125V19.875C0 20.4574 0.472219 20.9296 1.05469 20.9296C2.02395 20.9296 2.8125 21.7182 2.8125 22.6875C2.8125 23.6567 2.02395 24.4453 1.05469 24.4453C0.472219 24.4453 0 24.9175 0 25.5V29.25C0 29.8325 0.472219 30.3047 1.05469 30.3047H9.91406V27.8438C9.91406 27.2613 10.3863 26.7891 10.9688 26.7891C11.5512 26.7891 12.0234 27.2613 12.0234 27.8438V30.3047H34.9453C35.5278 30.3047 36 29.8325 36 29.25V6.75C36 6.16753 35.5278 5.69531 34.9453 5.69531ZM12.0234 23.3004C12.0234 23.8829 11.5512 24.3551 10.9688 24.3551C10.3863 24.3551 9.91406 23.8829 9.91406 23.3004V20.2716C9.91406 19.6891 10.3863 19.2169 10.9688 19.2169C11.5512 19.2169 12.0234 19.6891 12.0234 20.2716V23.3004ZM12.0234 15.7283C12.0234 16.3108 11.5512 16.783 10.9688 16.783C10.3863 16.783 9.91406 16.3108 9.91406 15.7283V12.6995C9.91406 12.117 10.3863 11.6448 10.9688 11.6448C11.5512 11.6448 12.0234 12.117 12.0234 12.6995V15.7283ZM17.2412 13.6872C17.2412 11.7566 18.6588 10.1859 20.4013 10.1859C22.1438 10.1859 23.5614 11.7566 23.5614 13.6872C23.5614 15.6179 22.1438 17.1885 20.4013 17.1885C18.6588 17.1885 17.2412 15.6179 17.2412 13.6872ZM21.4144 25.2274C21.2784 25.2274 21.1402 25.2008 21.0068 25.1449C20.4697 24.9195 20.217 24.3013 20.4424 23.7643L25.737 11.1487C25.9624 10.6116 26.5803 10.3589 27.1176 10.5844C27.6548 10.8098 27.9074 11.4279 27.682 11.965L22.3874 24.5806C22.2179 24.9843 21.8265 25.2274 21.4144 25.2274ZM27.5518 25.8141C25.8093 25.8141 24.3917 24.2434 24.3917 22.3128C24.3917 20.3821 25.8093 18.8115 27.5518 18.8115C29.2943 18.8115 30.7119 20.3821 30.7119 22.3128C30.7119 24.2434 29.2943 25.8141 27.5518 25.8141Z" fill="#858EBD"/>
<path d="M27.5517 20.9208C26.9821 20.9208 26.501 21.5582 26.501 22.3127C26.501 23.0673 26.9822 23.7047 27.5517 23.7047C28.1213 23.7047 28.6025 23.0673 28.6025 22.3127C28.6025 21.5582 28.1213 20.9208 27.5517 20.9208Z" fill="#858EBD"/>
</svg>
