<svg width="36" height="36" viewBox="0 0 36 36" fill="none" xmlns="http://www.w3.org/2000/svg">
<path d="M33.4725 11.3232H32.4865V22.1604C32.4865 23.8478 31.5041 25.3735 29.5345 25.3735H10.2383V25.8888C10.2383 27.3806 11.935 28.8864 13.6774 28.8864H28.4303L34.0743 32.2049L33.2558 28.8864H33.4725C35.2137 28.8864 35.9994 27.3841 35.9994 25.8888V13.8958C35.9994 12.404 35.2137 11.3232 33.4725 11.3232Z" fill="#858EBD"/>
<path d="M26.6544 3.79388H4.24219C2.2703 3.79388 0.000976562 5.54564 0.000976562 7.23417V20.8173C0.000976562 22.3723 1.92369 23.4953 3.76796 23.6686L2.56772 28.2248L10.2586 23.7002H26.6544C28.6263 23.7002 30.4459 22.5047 30.4459 20.8173V9.82784V7.23417C30.4459 5.54564 28.6251 3.79388 26.6544 3.79388ZM7.6614 15.2599C6.54313 15.2599 5.63681 14.3536 5.63681 13.2353C5.63681 12.1171 6.54313 11.2107 7.6614 11.2107C8.77849 11.2107 9.68599 12.1171 9.68599 13.2353C9.68599 14.3536 8.77849 15.2599 7.6614 15.2599ZM15.2235 15.2599C14.1052 15.2599 13.1989 14.3536 13.1989 13.2353C13.1989 12.1171 14.1052 11.2107 15.2235 11.2107C16.3417 11.2107 17.248 12.1171 17.248 13.2353C17.248 14.3536 16.3417 15.2599 15.2235 15.2599ZM22.7867 15.2599C21.6684 15.2599 20.7609 14.3536 20.7609 13.2353C20.7609 12.1171 21.6684 11.2107 22.7867 11.2107C23.9026 11.2107 24.8113 12.1171 24.8113 13.2353C24.8113 14.3536 23.9026 15.2599 22.7867 15.2599Z" fill="#858EBD"/>
</svg>
