<svg width="18" height="18" viewBox="0 0 18 18" fill="none" xmlns="http://www.w3.org/2000/svg">
<path fill-rule="evenodd" clip-rule="evenodd" d="M0.9 3.6C0.405 3.6 0 4.005 0 4.5V16.2C0 17.19 0.81 18 1.8 18H13.5C13.995 18 14.4 17.595 14.4 17.1C14.4 16.605 13.995 16.2 13.5 16.2H2.7C2.205 16.2 1.8 15.795 1.8 15.3V4.5C1.8 4.005 1.395 3.6 0.9 3.6ZM16.2 0H5.4C4.41 0 3.6 0.81 3.6 1.8V12.6C3.6 13.59 4.41 14.4 5.4 14.4H16.2C17.19 14.4 18 13.59 18 12.6V1.8C18 0.81 17.19 0 16.2 0ZM14.4 8.1H7.2C6.705 8.1 6.3 7.695 6.3 7.2C6.3 6.705 6.705 6.3 7.2 6.3H14.4C14.895 6.3 15.3 6.705 15.3 7.2C15.3 7.695 14.895 8.1 14.4 8.1ZM10.8 11.7H7.2C6.705 11.7 6.3 11.295 6.3 10.8C6.3 10.305 6.705 9.9 7.2 9.9H10.8C11.295 9.9 11.7 10.305 11.7 10.8C11.7 11.295 11.295 11.7 10.8 11.7ZM14.4 4.5H7.2C6.705 4.5 6.3 4.095 6.3 3.6C6.3 3.105 6.705 2.7 7.2 2.7H14.4C14.895 2.7 15.3 3.105 15.3 3.6C15.3 4.095 14.895 4.5 14.4 4.5Z" fill="#858EBD"/>
</svg>
