<svg width="20" height="20" viewBox="0 0 20 20" fill="none" xmlns="http://www.w3.org/2000/svg">
<g clip-path="url(#clip0_1129_31749)">
<path d="M17.5801 5.73124C17.9989 4.85676 17.9395 3.79736 17.2207 3.07856L16.9215 2.77932C16.2027 2.06052 15.1148 1.94616 14.2688 2.41992C13.6734 2.75336 12.4134 2.06004 12.3201 1.61096C12.1242 0.66784 11.2141 0 10.2042 0L9.69 0.02612C8.50752 0.0862 7.5796 1.06248 7.5796 2.24648C7.62 2.76 6.74 3.14 6.22884 2.80592C5.35156 1.92864 3.9292 1.92864 3.05192 2.80592L2.80588 3.05196C2.0536 3.80428 1.9662 4.94552 2.48448 5.824C2.84 6.42664 2.49332 7.49332 1.90924 7.63692C0.84644 7.89824 0 8.68 0 9.83192V10.2038C0 11.224 0.74312 11.9851 1.66752 12.313C2.62664 12.6533 2.551 14.0602 2.45268 14.2288C1.95104 15.0889 2.06876 16.2109 2.80592 16.948L3.05196 17.1941C3.7854 17.9275 4.8808 18.013 5.75828 17.5548C6.38668 17.2266 7.56004 17.84 7.65736 18.3414C7.84596 19.3132 8.78884 20 9.82612 20H10.1462C11.1631 20 12.0241 19.3326 12.3151 18.412C12.5054 17.8099 13.4267 17.2 14.3432 17.5856C15.2151 17.9524 16.289 17.8531 16.9704 17.1718L17.1941 16.948C18.0714 16.0708 18.0714 14.6484 17.1941 13.7712C16.8 13.4134 17.3067 12.4267 17.7536 12.4204C18.9943 12.4204 20 11.4146 20 10.1739V9.78932C20 8.75624 19.3142 7.8348 18.349 7.62268C17.7 7.48 17.37 6.17 17.5801 5.73124Z" fill="#45C9A5"/>
<path d="M8.2502 13.0531L5.64336 10.4463C5.33092 10.1339 5.33092 9.62733 5.64336 9.31493C5.9558 9.00249 6.46232 9.00249 6.77472 9.31493L8.81588 11.3561L13.2252 6.94673C13.5377 6.63429 14.0442 6.63429 14.3566 6.94673C14.669 7.25917 14.669 7.76569 14.3566 8.07809L9.3816 13.0531C9.05332 13.3333 8.46668 13.2933 8.2502 13.0531Z" fill="white"/>
</g>
<defs>
<clipPath id="clip0_1129_31749">
<rect width="20" height="20" fill="white"/>
</clipPath>
</defs>
</svg>
