<svg width="26" height="18" viewBox="0 0 26 18" fill="none" xmlns="http://www.w3.org/2000/svg">
<path d="M15.4938 5.77189C15.4938 5.22695 15.1463 4.76657 14.7349 4.76657C14.3236 4.76657 13.9761 5.22695 13.9761 5.77189C13.9761 6.31682 14.3236 6.77715 14.7349 6.77715C15.1463 6.77715 15.4938 6.31682 15.4938 5.77189Z" fill="#4B5EFF"/>
<path d="M25.2383 0H8.68359V1.77734C8.68359 2.19802 8.34255 2.53906 7.92188 2.53906C7.5012 2.53906 7.16016 2.19802 7.16016 1.77734V0H0.761719C0.341047 0 0 0.341047 0 0.761719V3.47003C0 3.89071 0.341047 4.23175 0.761719 4.23175C1.46174 4.23175 2.03125 4.80127 2.03125 5.50128C2.03125 6.2013 1.46174 6.77082 0.761719 6.77082C0.341047 6.77082 0 7.11186 0 7.53253V10.2409C0 10.6615 0.341047 11.0026 0.761719 11.0026C1.46174 11.0026 2.03125 11.5721 2.03125 12.2721C2.03125 12.9721 1.46174 13.5416 0.761719 13.5416C0.341047 13.5416 0 13.8827 0 14.3034V17.0117C0 17.4324 0.341047 17.7734 0.761719 17.7734H7.16016V15.9961C7.16016 15.5754 7.5012 15.2344 7.92188 15.2344C8.34255 15.2344 8.68359 15.5754 8.68359 15.9961V17.7734H25.2383C25.659 17.7734 26 17.4324 26 17.0117V0.761719C26 0.341047 25.659 0 25.2383 0ZM8.68359 12.7148C8.68359 13.1355 8.34255 13.4765 7.92188 13.4765C7.5012 13.4765 7.16016 13.1355 7.16016 12.7148V10.5273C7.16016 10.1066 7.5012 9.76559 7.92188 9.76559C8.34255 9.76559 8.68359 10.1066 8.68359 10.5273V12.7148ZM8.68359 7.24608C8.68359 7.66675 8.34255 8.0078 7.92188 8.0078C7.5012 8.0078 7.16016 7.66675 7.16016 7.24608V5.05857C7.16016 4.6379 7.5012 4.29686 7.92188 4.29686C8.34255 4.29686 8.68359 4.6379 8.68359 5.05857V7.24608ZM12.452 5.77195C12.452 4.3776 13.4758 3.2432 14.7343 3.2432C15.9927 3.2432 17.0166 4.3776 17.0166 5.77195C17.0166 7.1663 15.9927 8.30065 14.7343 8.30065C13.4758 8.30065 12.452 7.1663 12.452 5.77195ZM15.466 14.1065C15.3677 14.1065 15.2679 14.0873 15.1716 14.047C14.7836 13.8842 14.6012 13.4377 14.764 13.0498L18.5878 3.93854C18.7506 3.55068 19.1969 3.36817 19.585 3.53097C19.9729 3.69378 20.1553 4.1402 19.9925 4.52811L16.1687 13.6394C16.0463 13.9309 15.7636 14.1065 15.466 14.1065ZM19.8985 14.5302C18.6401 14.5302 17.6162 13.3958 17.6162 12.0015C17.6162 10.6071 18.6401 9.47278 19.8985 9.47278C21.157 9.47278 22.1808 10.6071 22.1808 12.0015C22.1808 13.3958 21.157 14.5302 19.8985 14.5302Z" fill="#4B5EFF"/>
<path d="M19.8991 10.9962C19.4878 10.9962 19.1403 11.4566 19.1403 12.0015C19.1403 12.5464 19.4878 13.0068 19.8991 13.0068C20.3105 13.0068 20.658 12.5464 20.658 12.0015C20.658 11.4566 20.3105 10.9962 19.8991 10.9962Z" fill="#4B5EFF"/>
</svg>
