<svg width="18" height="14" viewBox="0 0 18 14" fill="none" xmlns="http://www.w3.org/2000/svg">
<path d="M15.8079 3.55591H15.3423V8.67362C15.3423 9.47044 14.8784 10.191 13.9483 10.191H4.83594V10.4343C4.83594 11.1387 5.63719 11.8499 6.46 11.8499H13.4268L16.0921 13.417L15.7056 11.8499H15.8079C16.6302 11.8499 17.0012 11.1404 17.0012 10.4343V4.77078C17.0012 4.0663 16.6302 3.55591 15.8079 3.55591Z" fill="#858EBD"/>
<path d="M12.5866 0H2.00285C1.07165 0 0 0.827238 0 1.62462V8.03903C0 8.77337 0.907971 9.30367 1.77889 9.38551L1.2121 11.5371L4.84399 9.40044H12.5866C13.5178 9.40044 14.3771 8.83586 14.3771 8.03903V2.84944V1.62462C14.3771 0.827238 13.5173 0 12.5866 0ZM3.61751 5.41465C3.08942 5.41465 2.66143 4.98666 2.66143 4.45857C2.66143 3.93049 3.08942 3.50249 3.61751 3.50249C4.14504 3.50249 4.57359 3.93049 4.57359 4.45857C4.57359 4.98666 4.14504 5.41465 3.61751 5.41465ZM7.18857 5.41465C6.66048 5.41465 6.23249 4.98666 6.23249 4.45857C6.23249 3.93049 6.66048 3.50249 7.18857 3.50249C7.71665 3.50249 8.14465 3.93049 8.14465 4.45857C8.14465 4.98666 7.71665 5.41465 7.18857 5.41465ZM10.7602 5.41465C10.2321 5.41465 9.80355 4.98666 9.80355 4.45857C9.80355 3.93049 10.2321 3.50249 10.7602 3.50249C11.2872 3.50249 11.7163 3.93049 11.7163 4.45857C11.7163 4.98666 11.2872 5.41465 10.7602 5.41465Z" fill="#858EBD"/>
</svg>
