<svg width="20" height="19" viewBox="0 0 20 19" fill="none" xmlns="http://www.w3.org/2000/svg">
<path fill-rule="evenodd" clip-rule="evenodd" d="M10.294 14.7131V15.0605C10.294 15.4978 9.97097 15.8572 9.57795 15.8572H9.57257C9.17954 15.8572 8.85651 15.4978 8.85651 15.0605V14.7012C8.14045 14.5335 7.50515 14.0962 7.23596 13.3595C7.11213 13.0301 7.34363 12.6647 7.66667 12.6647H7.79588C7.99508 12.6647 8.1566 12.8144 8.23198 13.0241C8.38811 13.4733 8.79729 13.7848 9.58333 13.7848C10.6386 13.7848 10.8755 13.1978 10.8755 12.8324C10.8755 12.3353 10.6386 11.8681 9.43797 11.5506C8.10276 11.1913 7.1875 10.5803 7.1875 9.35247C7.1875 8.32226 7.93586 7.65142 8.86189 7.42981V7.07044C8.86189 6.6332 9.18493 6.27382 9.57795 6.27382H9.58333C9.97636 6.27382 10.2994 6.6332 10.2994 7.07044V7.44179C11.0424 7.64543 11.5108 8.16054 11.7154 8.79543C11.823 9.12486 11.5969 9.47226 11.2793 9.47226H11.1393C10.9401 9.47226 10.7786 9.31653 10.7247 9.1009C10.6009 8.6457 10.2617 8.35221 9.58333 8.35221C8.77575 8.35221 8.2912 8.7595 8.2912 9.3345C8.2912 9.83762 8.64115 10.167 9.7287 10.4785C10.8162 10.79 11.9792 11.3111 11.9792 12.8204C11.9684 13.9165 11.2308 14.5155 10.294 14.7131ZM17.25 3.87807H13.4167V1.96141C13.4167 0.897655 12.5637 0.0447388 11.5 0.0447388H7.66667C6.60292 0.0447388 5.75 0.897655 5.75 1.96141V3.87807H1.91667C0.852917 3.87807 0.00958333 4.73099 0.00958333 5.79474L0 16.3364C0 17.4002 0.852917 18.2531 1.91667 18.2531H17.25C18.3137 18.2531 19.1667 17.4002 19.1667 16.3364V5.79474C19.1667 4.73099 18.3137 3.87807 17.25 3.87807ZM11.4986 3.87799H7.66531V1.96132H11.4986V3.87799Z" fill="white"/>
</svg>
