<svg width="21" height="21" viewBox="0 0 21 21" fill="none" xmlns="http://www.w3.org/2000/svg">
<g clip-path="url(#clip0_1095_61776)">
<path d="M20.2542 2.89689C19.8029 2.85575 19.4039 3.18819 19.3628 3.63936L19.2541 4.83164C17.4101 1.93569 14.209 0 10.5 0C6.50999 0 2.99368 2.27727 1.24814 5.69518C1.04208 6.09865 1.20212 6.59277 1.60559 6.79883C2.00914 7.00489 2.50318 6.84489 2.70924 6.44138C4.1865 3.54879 7.15303 1.64062 10.5 1.64062C13.5507 1.64062 16.3037 3.2292 17.8809 5.71791L16.7113 4.88254C16.3426 4.61926 15.8303 4.70466 15.567 5.0733C15.3037 5.44199 15.3891 5.95428 15.7577 6.2176L19.3046 8.75077C19.8244 9.12134 20.5414 8.7821 20.5982 8.15772L20.9965 3.78833C21.0377 3.33711 20.7053 2.93803 20.2542 2.89689Z" fill="#4B5EFF"/>
<path d="M19.3945 14.2012C18.991 13.9952 18.4969 14.1552 18.2909 14.5586C16.8136 17.4512 13.8471 19.3594 10.5001 19.3594C7.44946 19.3594 4.69641 17.7708 3.11919 15.2821L4.28884 16.1175C4.65752 16.3807 5.16981 16.2954 5.43313 15.9267C5.69641 15.558 5.61101 15.0457 5.24237 14.7824L1.69554 12.2492C1.18207 11.8824 0.459288 12.2115 0.401866 12.8423L0.0035636 17.2117C-0.0375751 17.6629 0.294857 18.0619 0.745987 18.1031C1.19773 18.1441 1.59628 17.8114 1.63738 17.3606L1.74607 16.1683C3.59005 19.0643 6.79108 21 10.5001 21C14.4901 21 18.0064 18.7227 19.752 15.3048C19.958 14.9014 19.798 14.4072 19.3945 14.2012Z" fill="#4B5EFF"/>
</g>
<defs>
<clipPath id="clip0_1095_61776">
<rect width="21" height="21" fill="white"/>
</clipPath>
</defs>
</svg>
