<svg width="16" height="14" viewBox="0 0 16 14" fill="none" xmlns="http://www.w3.org/2000/svg">
<path d="M15.985 4.379L15.08 0.757C14.969 0.312 14.569 0 14.11 0H1.891C1.432 0 1.032 0.312 0.92 0.757L0.015 4.379C0.005 4.418 0 4.459 0 4.5C0 5.878 1.065 7 2.375 7C3.136 7 3.815 6.621 4.25 6.033C4.685 6.621 5.364 7 6.125 7C6.886 7 7.565 6.621 8 6.033C8.435 6.621 9.113 7 9.875 7C10.637 7 11.315 6.621 11.75 6.033C12.185 6.621 12.863 7 13.625 7C14.935 7 16 5.878 16 4.5C16 4.459 15.995 4.418 15.985 4.379Z" fill="#858EBD"/>
<path d="M13.625 8.00011C12.944 8.00011 12.297 7.79211 11.75 7.41211C10.656 8.17311 9.094 8.17311 8 7.41211C6.906 8.17311 5.344 8.17311 4.25 7.41211C3.703 7.79211 3.056 8.00011 2.375 8.00011C1.884 8.00011 1.421 7.88511 1 7.68911V13.0001C1 13.5521 1.448 14.0001 2 14.0001H6V10.0001H10V14.0001H14C14.552 14.0001 15 13.5521 15 13.0001V7.68911C14.579 7.88511 14.116 8.00011 13.625 8.00011Z" fill="#858EBD"/>
</svg>
