<svg width="20" height="20" viewBox="0 0 20 20" fill="none" xmlns="http://www.w3.org/2000/svg">
<path d="M10.2149 10.8483C10.8399 11.0437 11.4197 11.3718 11.9336 11.8132L17.541 9.71154C17.8327 9.60216 17.9889 9.24667 17.8917 8.92243L15.7945 1.84387C15.6973 1.51572 15.3814 1.33993 15.0932 1.44931L12.9717 2.24623L14.121 6.12929L12.0134 6.91449L10.8642 3.03144L8.72537 3.83227C8.43371 3.94165 8.27747 4.29714 8.37469 4.62138L10.2149 10.8483ZM19.9715 12.7508L19.6173 11.5632C19.5201 11.2351 19.2041 11.0593 18.916 11.1687L11.503 13.9501C10.9058 13.0907 9.98921 12.5281 8.95105 12.5047L5.49979 0.855522C5.34702 0.343771 4.92343 0 4.44428 0H0.555535C0.249991 0 0 0.281268 0 0.625039V1.87512C0 2.21889 0.249991 2.50016 0.555535 2.50016H3.64222L6.84349 13.3094C5.93728 14.1063 5.39563 15.4033 5.59354 16.8448C5.80534 18.384 6.90946 19.6692 8.27747 19.9387C10.3677 20.3567 12.1766 18.5793 12.2148 16.3213L19.6208 13.5399C19.909 13.4305 20.0687 13.0789 19.9715 12.7508ZM8.88856 18.1261C7.96845 18.1261 7.22195 17.2862 7.22195 16.251C7.22195 15.2158 7.96845 14.3759 8.88856 14.3759C9.80866 14.3759 10.5552 15.2158 10.5552 16.251C10.5552 17.2862 9.80866 18.1261 8.88856 18.1261Z" fill="#858EBD"/>
</svg>
