<svg width="22" height="22" viewBox="0 0 22 22" fill="none" xmlns="http://www.w3.org/2000/svg">
<path d="M20.4545 6.91992H19.852V13.5427C19.852 14.5738 19.2516 15.5062 18.048 15.5062H6.25586V15.8211C6.25586 16.7328 7.29274 17.653 8.35754 17.653H17.3732L20.8223 19.681L20.3221 17.653H20.4545C21.5186 17.653 21.9988 16.7349 21.9988 15.8211V8.49207C21.9988 7.58041 21.5186 6.91992 20.4545 6.91992Z" fill="white"/>
<path d="M16.2882 2.3186H2.59186C1.38681 2.3186 0 3.38912 0 4.421V12.7218C0 13.6721 1.17499 14.3584 2.30204 14.4643L1.56857 17.2486L6.26854 14.4836H16.2882C17.4932 14.4836 18.6053 13.753 18.6053 12.7218V6.00602V4.421C18.6053 3.38912 17.4925 2.3186 16.2882 2.3186ZM4.68137 9.32563C3.99798 9.32563 3.44412 8.77177 3.44412 8.08838C3.44412 7.40499 3.99798 6.85113 4.68137 6.85113C5.36404 6.85113 5.91862 7.40499 5.91862 8.08838C5.91862 8.77177 5.36404 9.32563 4.68137 9.32563ZM9.30263 9.32563C8.61924 9.32563 8.06538 8.77177 8.06538 8.08838C8.06538 7.40499 8.61924 6.85113 9.30263 6.85113C9.98601 6.85113 10.5399 7.40499 10.5399 8.08838C10.5399 8.77177 9.98601 9.32563 9.30263 9.32563ZM13.9246 9.32563C13.2412 9.32563 12.6866 8.77177 12.6866 8.08838C12.6866 7.40499 13.2412 6.85113 13.9246 6.85113C14.6066 6.85113 15.1619 7.40499 15.1619 8.08838C15.1619 8.77177 14.6066 9.32563 13.9246 9.32563Z" fill="white"/>
</svg>
