<svg width="16" height="14" viewBox="0 0 16 14" fill="none" xmlns="http://www.w3.org/2000/svg">
<path d="M15.5556 2.33333V1.94454C15.5543 0.871155 14.6845 0.00128177 13.6111 0H1.9444C0.871013 0.00128177 0.00128174 0.871155 0 1.94454V2.33333H15.5556Z" fill="#858EBD"/>
<path d="M0 3.11108V12.0555C0.00128174 13.1289 0.871013 13.9987 1.9444 13.9999H13.6111C14.6845 13.9987 15.5543 13.1289 15.5556 12.0555V3.11108H0ZM2.33333 5.83321C2.33333 5.7301 2.37421 5.63112 2.44712 5.55821C2.52018 5.48529 2.61902 5.44428 2.72227 5.44442H5.83334C5.93645 5.44428 6.03542 5.48529 6.10834 5.55821C6.1814 5.63112 6.22227 5.7301 6.22227 5.83321V8.16655C6.22227 8.2698 6.1814 8.36863 6.10834 8.44169C6.03542 8.51461 5.93645 8.55548 5.83334 8.55548H2.72227C2.61902 8.55548 2.52018 8.51461 2.44712 8.44169C2.37421 8.36863 2.33333 8.2698 2.33333 8.16655V5.83321ZM12.8333 10.8888H2.72227C2.50751 10.8888 2.33333 10.7146 2.33333 10.4999C2.33333 10.2851 2.50751 10.1111 2.72227 10.1111H12.8333C13.0481 10.1111 13.2223 10.2851 13.2223 10.4999C13.2223 10.7146 13.0481 10.8888 12.8333 10.8888ZM12.8333 8.55548H8.16667C7.95191 8.55548 7.77773 8.38131 7.77773 8.16655C7.77773 7.95178 7.95191 7.77775 8.16667 7.77775H12.8333C13.0481 7.77775 13.2223 7.95178 13.2223 8.16655C13.2223 8.38131 13.0481 8.55548 12.8333 8.55548ZM12.8333 6.22215H8.16667C7.95191 6.22215 7.77773 6.04798 7.77773 5.83321C7.77773 5.61845 7.95191 5.44442 8.16667 5.44442H12.8333C13.0481 5.44442 13.2223 5.61845 13.2223 5.83321C13.2223 6.04798 13.0481 6.22215 12.8333 6.22215Z" fill="#858EBD"/>
<path d="M3.11133 6.22241H5.44466V7.77802H3.11133V6.22241Z" fill="#858EBD"/>
</svg>
