<svg width="14" height="16" viewBox="0 0 14 16" fill="none" xmlns="http://www.w3.org/2000/svg">
<path d="M7.41226 0C6.50735 0 5.74414 0.855799 5.74414 1.8705C5.74414 2.8852 6.50735 3.741 7.41226 3.741C8.31718 3.741 9.05304 2.8852 9.05304 1.8705C9.05304 0.855799 8.31718 0 7.41226 0Z" fill="#858EBD"/>
<path d="M9.23339 3.74054C8.78258 4.30105 8.13691 4.66046 7.41234 4.66046C6.68777 4.66046 6.01475 4.30105 5.56395 3.74054C5.17038 4.22991 4.92383 4.871 4.92383 5.58037V6.04033C4.92383 6.29457 5.10729 6.50029 5.33402 6.50029H9.46331C9.69004 6.50029 9.87351 6.29457 9.87351 6.04033V5.58037C9.87351 4.871 9.62695 4.22991 9.23339 3.74054Z" fill="#858EBD"/>
<path d="M3.96307 14.1177L1.87269 9.41831C1.67085 8.96451 1.1796 8.77946 0.774408 9.00456L0.228057 9.30804C0.0246277 9.42116 -0.0581495 9.69839 0.0433872 9.9261L2.50455 15.4456C2.60576 15.6732 2.85196 15.7638 3.05375 15.6522L3.59307 15.3526C3.99985 15.1267 4.16565 14.5732 3.96307 14.1177Z" fill="#858EBD"/>
<path d="M13.6651 7.59532C13.3287 7.31934 12.8611 7.37454 12.5822 7.7149L10.3398 10.8058C10.1839 10.9898 9.88858 11.1002 9.7327 11.1002H7.82117C7.59143 11.1002 7.41097 10.8979 7.41097 10.6402C7.41097 10.3826 7.59143 10.1803 7.82117 10.1803C8.37056 10.1803 8.97879 10.1803 9.46195 10.1803C9.91316 10.1803 10.2823 9.76632 10.2823 9.26037C10.2823 8.75441 9.91316 8.34045 9.46195 8.34045C7.53551 8.34045 9.37307 8.34045 7.31253 8.34045C7.10809 8.34045 7.00614 8.19507 6.84491 8.03684C6.21023 7.39643 5.26022 7.08789 4.29845 7.33786C3.76443 7.47665 3.40431 7.71855 3.03907 8.04292L3.0269 8.03185L2.43359 8.61734L4.76525 13.86H5.45569H9.46195C10.2331 13.86 10.9715 13.446 11.4309 12.7561L13.8374 8.8924C14.1081 8.4876 14.0342 7.89892 13.6651 7.59532Z" fill="#858EBD"/>
</svg>
