<svg width="16" height="13" viewBox="0 0 16 13" fill="none" xmlns="http://www.w3.org/2000/svg">
<path d="M8.46875 10.3003H9.40625V12.2645H8.46875V10.3003Z" fill="#858EBD"/>
<path d="M6.59375 10.3003H7.53125V12.2645H6.59375V10.3003Z" fill="#858EBD"/>
<path d="M11.1562 0H4.84375C4.58487 0 4.375 0.160877 4.375 0.359315V12.2646H5.65625V9.94105C5.65625 9.74262 5.86612 9.58174 6.125 9.58174H8H9.875C10.1339 9.58174 10.3438 9.74262 10.3438 9.94105V12.2646H11.625V0.359315C11.625 0.160877 11.4151 0 11.1562 0ZM6.59375 8.50379C6.59375 8.70223 6.38387 8.86311 6.125 8.86311C5.86612 8.86311 5.65625 8.70223 5.65625 8.50379V7.78516C5.65625 7.58672 5.86612 7.42585 6.125 7.42585C6.38387 7.42585 6.59375 7.58672 6.59375 7.78516V8.50379ZM6.59375 6.3479C6.59375 6.54634 6.38387 6.70722 6.125 6.70722C5.86612 6.70722 5.65625 6.54634 5.65625 6.3479V5.62927C5.65625 5.43083 5.86612 5.26996 6.125 5.26996C6.38387 5.26996 6.59375 5.43083 6.59375 5.62927V6.3479ZM8.46875 8.50379C8.46875 8.70223 8.25887 8.86311 8 8.86311C7.74113 8.86311 7.53125 8.70223 7.53125 8.50379V7.78516C7.53125 7.58672 7.74113 7.42585 8 7.42585C8.25887 7.42585 8.46875 7.58672 8.46875 7.78516V8.50379ZM8.46875 6.3479C8.46875 6.54634 8.25887 6.70722 8 6.70722C7.74113 6.70722 7.53125 6.54634 7.53125 6.3479V5.62927C7.53125 5.43083 7.74113 5.26996 8 5.26996C8.25887 5.26996 8.46875 5.43083 8.46875 5.62927V6.3479ZM10.3438 8.50379C10.3438 8.70223 10.1339 8.86311 9.875 8.86311C9.61613 8.86311 9.40625 8.70223 9.40625 8.50379V7.78516C9.40625 7.58672 9.61613 7.42585 9.875 7.42585C10.1339 7.42585 10.3438 7.58672 10.3438 7.78516V8.50379ZM10.3438 6.3479C10.3438 6.54634 10.1339 6.70722 9.875 6.70722C9.61613 6.70722 9.40625 6.54634 9.40625 6.3479V5.62927C9.40625 5.43083 9.61613 5.26996 9.875 5.26996C10.1339 5.26996 10.3438 5.43083 10.3438 5.62927V6.3479ZM6.59375 4.19201C6.59375 4.39045 6.38387 4.55133 6.125 4.55133C5.86612 4.55133 5.65625 4.39045 5.65625 4.19201V3.47338C5.65625 3.27494 5.86612 3.11407 6.125 3.11407C6.38387 3.11407 6.59375 3.27494 6.59375 3.47338V4.19201ZM8.46875 4.19201C8.46875 4.39045 8.25887 4.55133 8 4.55133C7.74113 4.55133 7.53125 4.39045 7.53125 4.19201V3.47338C7.53125 3.27494 7.74113 3.11407 8 3.11407C8.25887 3.11407 8.46875 3.27494 8.46875 3.47338V4.19201ZM10.3438 4.19201C10.3438 4.39045 10.1339 4.55133 9.875 4.55133C9.61613 4.55133 9.40625 4.39045 9.40625 4.19201V3.47338C9.40625 3.27494 9.61613 3.11407 9.875 3.11407C10.1339 3.11407 10.3438 3.27494 10.3438 3.47338V4.19201ZM6.59375 2.03612C6.59375 2.23456 6.38387 2.39543 6.125 2.39543C5.86612 2.39543 5.65625 2.23456 5.65625 2.03612V1.31749C5.65625 1.11905 5.86612 0.958174 6.125 0.958174C6.38387 0.958174 6.59375 1.11905 6.59375 1.31749V2.03612ZM8.46875 2.03612C8.46875 2.23456 8.25887 2.39543 8 2.39543C7.74113 2.39543 7.53125 2.23456 7.53125 2.03612V1.31749C7.53125 1.11905 7.74113 0.958174 8 0.958174C8.25887 0.958174 8.46875 1.11905 8.46875 1.31749V2.03612ZM10.3438 2.03612C10.3438 2.23456 10.1339 2.39543 9.875 2.39543C9.61613 2.39543 9.40625 2.23456 9.40625 2.03612V1.31749C9.40625 1.11905 9.61613 0.958174 9.875 0.958174C10.1339 0.958174 10.3438 1.11905 10.3438 1.31749V2.03612Z" fill="#858EBD"/>
<path d="M15.5312 4.79077H12.5625V12.2645H15.5312C15.7901 12.2645 16 12.1037 16 11.9052V5.15009C16 4.95165 15.7901 4.79077 15.5312 4.79077ZM14.75 9.46187C14.75 9.66031 14.5401 9.82118 14.2812 9.82118C14.0224 9.82118 13.8125 9.66031 13.8125 9.46187V8.74324C13.8125 8.5448 14.0224 8.38392 14.2812 8.38392C14.5401 8.38392 14.75 8.5448 14.75 8.74324V9.46187ZM14.75 7.30598C14.75 7.50442 14.5401 7.66529 14.2812 7.66529C14.0224 7.66529 13.8125 7.50442 13.8125 7.30598V6.58735C13.8125 6.38891 14.0224 6.22803 14.2812 6.22803C14.5401 6.22803 14.75 6.38891 14.75 6.58735V7.30598Z" fill="#858EBD"/>
<path d="M0.46875 4.79077C0.209875 4.79077 0 4.95165 0 5.15009V11.9052C0 12.1037 0.209875 12.2645 0.46875 12.2645H3.4375V4.79077H0.46875ZM2.1875 9.46187C2.1875 9.66031 1.97763 9.82118 1.71875 9.82118C1.45987 9.82118 1.25 9.66031 1.25 9.46187V8.74324C1.25 8.5448 1.45987 8.38392 1.71875 8.38392C1.97763 8.38392 2.1875 8.5448 2.1875 8.74324V9.46187ZM2.1875 7.30598C2.1875 7.50442 1.97763 7.66529 1.71875 7.66529C1.45987 7.66529 1.25 7.50442 1.25 7.30598V6.58735C1.25 6.38891 1.45987 6.22803 1.71875 6.22803C1.97763 6.22803 2.1875 6.38891 2.1875 6.58735V7.30598Z" fill="#858EBD"/>
</svg>
