<svg width="41" height="45" viewBox="0 0 41 45" fill="none" xmlns="http://www.w3.org/2000/svg">
<path fill-rule="evenodd" clip-rule="evenodd" d="M16.9754 19.9253C15.6381 18.5715 16.3271 16.0944 18.1093 14.2983C18.9421 13.46 19.9214 12.8576 20.8762 12.5945C21.8094 12.3394 22.927 12.3639 23.7164 13.1588C25.051 14.5126 24.3647 16.987 22.5825 18.7831C21.7497 19.6214 20.7677 20.2238 19.8129 20.4869C18.8797 20.742 17.7648 20.7176 16.9754 19.9253ZM19.2758 18.5226C19.8291 18.3707 20.51 17.9827 21.1366 17.3479C21.766 16.7157 22.1539 16.0293 22.3031 15.4677C22.4604 14.8871 22.3221 14.6402 22.2705 14.5886C22.2163 14.5344 21.9749 14.4041 21.4161 14.5588C20.8627 14.7107 20.1818 15.0987 19.5552 15.7336C18.9258 16.3657 18.5379 17.0548 18.386 17.6137C18.2287 18.1971 18.3697 18.4412 18.4213 18.4901C18.4755 18.5443 18.7142 18.6773 19.2758 18.5226Z" fill="#5D6FFF"/>
<path fill-rule="evenodd" clip-rule="evenodd" d="M0 39.959V17.1634C0 14.0677 1.58962 12.2798 3.26063 11.4848L24.3787 1.02847L24.8345 0.778865C26.3047 0.07888 28.8194 -0.442043 30.0943 0.548246C30.4931 0.854828 30.7616 1.30249 30.8132 1.85597L30.8159 2.18426L30.8186 26.019C30.7752 27.5872 30.2001 28.8624 28.8112 29.6573L28.1711 29.9666L8.17055 39.1695L8.08375 39.2048C7.98881 39.24 7.91014 39.3106 7.86131 39.4028L7.85046 39.4951L8.10002 39.4924C8.36586 39.4707 8.79175 39.4028 9.49434 39.2075L30.5528 32.4952C31.7246 32.072 32.0664 31.798 32.2618 31.4181C32.5195 30.927 32.628 30.067 32.628 28.0946L32.6497 13.3759C32.6497 12.8495 33.0511 12.4127 33.5747 12.3639C36.2711 12.1197 40.8148 12.9906 40.6954 17.1797L40.652 40.0241C40.7063 43.2419 38.8318 45 35.5387 45H5.15949C1.85004 45 0 43.2229 0 39.959ZM38.6148 40.0377L38.6637 17.1498C38.7071 15.5599 37.272 14.6809 35.5414 14.434L34.6787 14.4123L34.6625 28.0973C34.6625 29.9585 34.5919 31.3422 34.0711 32.3541C33.4879 33.4801 32.4489 33.9712 31.212 34.4243L10.1481 41.1338L10.0342 41.1691C8.70224 41.5381 7.67685 41.6737 6.90103 41.3427C6.59992 41.2125 6.36121 41.0253 6.17946 40.8055C6.09536 40.7051 6.02755 40.6047 5.97058 40.5071C5.92175 40.4284 5.88649 40.3443 5.86207 40.2548C5.59623 39.2753 5.94888 38.323 6.62976 37.7397L7.3242 37.33L27.4034 28.0783C28.3962 27.6822 28.7543 27.0798 28.7841 25.9946V2.15984L28.6431 2.07573C28.011 1.94279 26.359 2.16527 25.3824 2.79471L25.2821 2.85169L4.14767 13.3162C3.13313 13.7964 2.0345 14.8952 2.0345 17.1634V39.959C2.0345 42.0427 2.93782 42.9652 5.15949 42.9652H35.5387C37.7603 42.9652 38.6528 42.0536 38.6148 40.0377Z" fill="#5D6FFF"/>
</svg>
