<svg width="65" height="45" viewBox="0 0 65 45" fill="none" xmlns="http://www.w3.org/2000/svg">
<path d="M59.9991 0H4.49902C2.0155 0 0 2.01576 0 4.4985V9.80274H64.5002V4.4985C64.5002 2.01576 62.4847 0 59.9991 0Z" fill="#5D6FFF"/>
<path d="M0 40.4962C0 42.9844 2.0155 44.9999 4.49902 44.9999H59.9988C62.4844 44.9999 64.4999 42.9844 64.4999 40.4962V20.311H0V40.4962Z" fill="#5D6FFF"/>
<path d="M53.6737 26.7332C57.9243 26.7332 61.3702 30.179 61.3702 34.4283C61.3702 38.6773 57.9243 42.1206 53.6737 42.1206C49.4221 42.1206 45.9814 38.677 45.9814 34.4283C45.9814 30.1793 49.4221 26.7332 53.6737 26.7332Z" fill="#6A74A5"/>
<path d="M57.6577 30.4574C57.3138 29.4442 56.8256 28.4863 56.1959 27.5941C57.1538 27.9406 58.0251 28.51 58.8019 29.2894C58.949 29.4339 59.0855 29.5807 59.2114 29.7355C58.7127 30.0165 58.1956 30.2605 57.6577 30.4574ZM52.532 27.2476C52.797 27.2133 53.0648 27.1847 53.3351 27.1741V31.137C52.3666 31.1161 51.4427 30.9847 50.5714 30.7381C50.9889 29.4837 51.6501 28.3131 52.532 27.2476ZM50.3774 31.4022C51.3171 31.6568 52.2998 31.7985 53.3354 31.8248V34.0637H50.002C50.0255 33.137 50.1463 32.2448 50.3774 31.4022ZM49.9156 30.5309C49.2987 30.3212 48.7162 30.0559 48.1478 29.7358C48.2827 29.5807 48.4115 29.4339 48.5624 29.2897C49.4218 28.4236 50.3981 27.8278 51.4819 27.4891C50.7933 28.4339 50.275 29.4494 49.9156 30.5309ZM57.0083 30.6728C56.062 30.9561 55.0712 31.1109 54.0243 31.1372V27.1743C54.3968 27.1901 54.7552 27.2321 55.1017 27.2977C55.9557 28.3369 56.5854 29.4625 57.0083 30.6728ZM57.5932 34.0635H54.024V31.8245C55.1435 31.7982 56.1984 31.6331 57.2062 31.3364C57.4425 32.2025 57.5736 33.1081 57.5932 34.0635ZM57.1118 37.8192C56.1355 37.5333 55.1068 37.3783 54.024 37.3496V34.7565H57.5932C57.5713 35.8297 57.4085 36.8481 57.1118 37.8192ZM50.002 34.7565H53.3354V37.3496C52.3393 37.3731 51.3787 37.515 50.4667 37.7562C50.186 36.806 50.0322 35.8114 50.002 34.7565ZM50.687 38.4097C51.5297 38.1894 52.4115 38.0712 53.3354 38.0424V41.6459C53.065 41.6327 52.7972 41.609 52.5374 41.5723C52.3746 41.3729 52.2159 41.1706 52.0702 40.9712C51.485 40.1629 51.0281 39.3073 50.687 38.4097ZM50.0255 38.604C50.3798 39.5646 50.8627 40.4805 51.4848 41.3308C50.3981 40.9975 49.4269 40.3992 48.5624 39.5328C48.493 39.4645 48.422 39.3938 48.3617 39.3231C48.8919 39.0318 49.4535 38.7955 50.0255 38.604ZM56.8914 38.4699C56.5581 39.3517 56.0988 40.184 55.5307 40.9709C55.3958 41.1574 55.2539 41.3386 55.0963 41.53C54.7523 41.593 54.3968 41.6273 54.0243 41.6456V38.0421C55.0294 38.0712 55.9807 38.2129 56.8914 38.4699ZM57.5491 38.6773C58.0437 38.8558 58.5344 39.071 58.999 39.3231C58.9374 39.3938 58.8703 39.4647 58.8019 39.5328C58.8019 39.5328 58.8019 39.5328 58.7993 39.5328C58.0132 40.3122 57.1538 40.8739 56.1959 41.2258C56.7629 40.4255 57.2062 39.5751 57.5491 38.6773ZM49.808 37.9531C49.1413 38.1685 48.5139 38.4518 47.9104 38.7931C46.9971 37.6197 46.5103 36.2761 46.4514 34.7565H49.3121C49.3405 35.8772 49.5062 36.9425 49.808 37.9531ZM57.8571 31.1186C58.475 30.8929 59.0697 30.6096 59.6391 30.2843C60.4291 31.389 60.8572 32.654 60.9134 34.0635H58.2849C58.2563 33.0374 58.1195 32.0531 57.8571 31.1186ZM58.2849 34.7565H60.9137C60.8492 36.2761 60.3677 37.6197 59.4583 38.7931C58.9147 38.4861 58.352 38.234 57.7707 38.0243C58.0803 36.9897 58.2563 35.9059 58.2849 34.7565ZM49.3119 34.0635H46.4512C46.5023 32.654 46.9249 31.389 47.7159 30.2843C48.3526 30.6545 49.0242 30.9558 49.7105 31.1948C49.4641 32.1081 49.3354 33.0583 49.3119 34.0635Z" fill="white"/>
<path d="M40.3113 31.1897H3.99902V33.7457H40.3113V31.1897Z" fill="white"/>
<path d="M12.8655 24.4998H3.99902V27.0558H12.8655V24.4998Z" fill="white"/>
<path d="M40.3114 24.3552H18.8535V26.9167H40.3114V24.3552Z" fill="white"/>
</svg>
