<svg width="44" height="46" viewBox="0 0 44 46" fill="none" xmlns="http://www.w3.org/2000/svg">
<path fill-rule="evenodd" clip-rule="evenodd" d="M35.8311 31.7798C35.4528 30.0242 34.6435 28.7035 33.5069 27.7049C33.1154 27.2906 32.6421 26.9977 32.1045 26.6873C31.8328 26.5306 31.637 26.434 31.2821 26.2993C30.6933 26.0753 29.9191 25.8132 28.9579 25.9113C29.4399 25.6668 30.1572 25.6565 30.8935 25.6682C31.5056 25.7341 32.0139 25.904 32.5384 26.0562C32.9781 26.2949 33.4134 26.538 33.8458 26.7839C34.9064 23.6066 34.5003 19.2564 33.3141 16.4539C32.1673 13.5138 30.499 11.0934 28.3311 9.17972C26.1983 7.22646 23.636 5.70368 20.2483 5.00818C18.5727 4.64505 16.4647 4.70362 14.925 5.05649C13.3166 5.48112 11.9799 6.17808 10.8127 7.0449C9.72727 8.00981 8.67399 9.00694 7.95818 10.3423C7.69961 10.6015 7.59005 11.0085 7.37676 11.3131C7.22776 11.6806 7.06122 12.0305 6.89322 12.379C6.64342 13.1463 6.35709 13.8784 6.21539 14.7569C5.82826 16.3441 5.75814 18.5258 6.02255 20.2375C6.22123 22.075 6.75882 23.5729 7.33001 25.0386C7.68208 25.7209 8.002 26.434 8.39351 27.0753C8.76457 27.7225 9.22327 28.2804 9.65276 28.8704C10.6271 29.9305 11.6746 30.916 12.8944 31.733C15.3661 33.3465 18.2031 34.5926 22.0889 34.7873C22.1664 34.6292 21.9852 34.3129 21.9443 34.1094C21.8859 33.8766 21.8625 33.6086 21.7968 33.3817C21.7427 32.859 21.7252 32.2499 21.7968 31.733C21.9516 31.7725 21.9472 31.9702 22.0407 32.0712C22.124 32.1664 22.1547 32.3143 22.2832 32.3626C22.3797 32.6364 22.5915 32.796 22.7186 33.042C23.0838 33.4198 23.3672 33.8781 23.8317 34.1563C24.2013 34.5311 24.6936 34.78 25.1392 35.0787C25.6184 35.3262 26.0289 35.641 26.5913 35.805C27.5525 36.313 28.841 36.4917 30.1236 36.6791C31.4165 36.8548 32.6626 37.0759 33.8488 37.3585C34.9415 37.7348 36.0546 38.0891 36.9458 38.6675C37.4162 38.9398 37.8807 39.2195 38.3 39.5416C38.5059 39.7071 38.7645 39.8184 38.9296 40.0263C39.1852 40.1273 39.2963 40.3704 39.5592 40.4626C40.3116 41.1801 41.0522 41.9078 41.6906 42.7424C41.9535 43.2227 42.3115 43.6063 42.5131 44.1495C42.6898 44.3442 42.7409 44.6649 42.9002 44.8758C42.9104 45.151 43.1763 45.4819 42.9484 45.7001C42.589 45.7528 42.6621 45.3721 42.5131 45.2155C42.3962 45.0251 42.2501 44.8626 42.1727 44.6356C41.6073 44.0397 41.1004 43.3837 40.481 42.8405C39.8675 42.3075 39.2641 41.7628 38.5454 41.3368C37.1941 40.3792 35.6281 39.6397 33.8035 39.1536C32.0081 38.6338 29.9936 38.4244 27.6592 38.5738C26.6336 38.7085 25.6549 38.8944 24.8032 39.2034C23.8873 39.4318 22.8661 39.5563 21.8508 39.6881C17.8905 39.9326 13.4816 38.9867 10.5278 37.5562C8.95302 36.8241 7.5024 35.9646 6.2709 34.8884C5.59745 34.4008 5.04671 33.7873 4.4799 33.1913C3.96276 32.5617 3.41641 31.9599 3.02782 31.2029C2.51068 30.5572 2.2039 29.7007 1.76857 28.9729C1.48663 28.1091 1.0849 27.3623 0.897907 26.4033C0.601355 25.5364 0.420208 24.554 0.317949 23.4939C0.300419 23.2025 0.170406 22.6402 0.171867 22.1834C0.171867 22.1424 0.224456 22.1073 0.220073 22.0384C0.19816 21.6241 0.100284 20.9871 0.220073 20.6328C0.19816 19.6708 0.370541 18.4892 0.55899 17.577C0.732831 16.6033 0.98994 15.716 1.28503 14.8623C1.57282 13.9882 1.9541 13.2063 2.30032 12.3893C2.53259 12.0408 2.70936 11.6367 2.92848 11.275C3.11401 10.8943 3.39157 10.6073 3.55957 10.2076C3.7451 10.1036 3.77869 9.84593 3.94523 9.72294C4.01973 9.5077 4.22133 9.41692 4.28415 9.18997C4.44338 9.05819 4.56901 8.89273 4.67127 8.70385C4.81882 8.56036 4.97221 8.42418 5.0584 8.21773C5.63543 7.64815 6.15111 7.01708 6.75152 6.47239C7.35046 5.90867 8.02099 5.41669 8.63893 4.872C9.0319 4.68459 9.3153 4.38589 9.70389 4.19407C9.99898 3.92319 10.4285 3.78702 10.7206 3.51468C11.5241 3.15009 12.2122 2.67422 13.0887 2.3887C13.8439 1.99775 14.7497 1.75762 15.6057 1.46771C17.4624 0.988913 19.3382 0.660929 21.6522 0.739996C21.7369 0.750246 21.7778 0.656536 21.7982 0.739996C26.1837 0.871776 29.38 2.19689 32.106 3.98908C34.8071 5.79153 36.8976 8.20602 38.3964 11.2164C39.8616 14.1976 40.6855 18.2476 39.9945 22.5158C39.6483 24.4324 39.0888 26.1338 38.3964 27.7049C38.0005 28.44 37.6484 29.2189 37.1868 29.8881C36.9852 30.2497 36.769 30.5997 36.509 30.9072C36.4228 31.0931 36.2986 31.2454 36.173 31.3918C36.116 31.4811 36.0444 31.5558 35.9787 31.6349C35.9553 31.6773 35.9363 31.7213 35.8823 31.7315C35.8925 31.8179 35.8341 31.8311 35.8311 31.7798Z" fill="#5D6FFF"/>
<path fill-rule="evenodd" clip-rule="evenodd" d="M34.669 33.0404C34.1007 32.8163 34.0058 32.1208 33.7487 31.5849C33.7034 31.3887 33.6625 31.0929 33.7487 30.9055C33.7867 30.8967 33.7969 30.8572 33.8451 30.8572C33.9883 30.765 34.1227 30.8821 34.3286 30.9538C34.6062 31.273 34.7844 31.6933 34.9086 32.1662C34.9203 32.5498 34.9495 32.9496 34.669 33.0404Z" fill="#5D6FFF"/>
<path fill-rule="evenodd" clip-rule="evenodd" d="M30.4119 32.2162C30.4221 32.1606 30.4615 32.1884 30.4615 32.2162C31.319 32.3246 31.712 32.9 31.7675 33.8166C31.6901 34.3232 31.4082 34.6204 30.9451 34.7376C29.7895 34.7566 29.1322 33.6907 29.5427 32.6028C29.772 32.4153 29.9356 32.1591 30.4119 32.2162Z" fill="#5D6FFF"/>
</svg>
