<svg width="61" height="45" viewBox="0 0 61 45" fill="none" xmlns="http://www.w3.org/2000/svg">
<path d="M0 5.625V39.375C0 42.4731 4.51224 45 10.0446 45H50.2232C55.7556 45 60.2679 42.4731 60.2679 39.375V11.25L40.1786 0H10.0446C4.51224 0 0 2.52686 0 5.625ZM35.1562 22.5H25.1116V16.875H35.1562V22.5ZM50.2232 22.5H40.1786V16.875H45.2009C47.9867 16.875 50.2232 18.1274 50.2232 19.6875V22.5ZM40.1786 33.75H50.2232V36.5625C50.2232 38.1226 47.9867 39.375 45.2009 39.375H40.1786V33.75ZM25.1116 33.75H35.1562V39.375H25.1116V33.75ZM10.0446 33.75H20.0893V39.375H15.067C12.2811 39.375 10.0446 38.1226 10.0446 36.5625V33.75ZM10.0446 25.3125H50.2232V30.9375H10.0446V25.3125ZM10.0446 19.6875C10.0446 18.1274 12.2811 16.875 15.067 16.875H20.0893V22.5H10.0446V19.6875Z" fill="white"/>
</svg>
