<svg width="25" height="24" viewBox="0 0 25 24" fill="none" xmlns="http://www.w3.org/2000/svg">
<path d="M6.50993 18.3548C4.8423 18.3548 3.35891 17.287 2.82027 15.6974L2.78383 15.5776C2.6568 15.1567 2.60359 14.8027 2.60359 14.4484V7.34607L0.0764774 15.7817C-0.248543 17.0225 0.492099 18.3088 1.73477 18.6516L17.8425 22.9654C18.0436 23.0174 18.2446 23.0424 18.4426 23.0424C19.48 23.0424 20.428 22.3538 20.6937 21.3391L21.6321 18.3548H6.50993Z" fill="#4B5EFF"/>
<path d="M9.37642 7.41702C10.5254 7.41702 11.4597 6.48259 11.4597 5.33357C11.4597 4.18456 10.5254 3.25012 9.37642 3.25012C8.2274 3.25012 7.29297 4.18456 7.29297 5.33357C7.29297 6.48259 8.2274 7.41702 9.37642 7.41702Z" fill="#4B5EFF"/>
<path d="M22.3975 0.125061H6.77214C5.33682 0.125061 4.16797 1.29391 4.16797 2.72942V14.1879C4.16797 15.6234 5.33682 16.7923 6.77214 16.7923H22.3975C23.833 16.7923 25.0019 15.6234 25.0019 14.1879V2.72942C25.0019 1.29391 23.833 0.125061 22.3975 0.125061ZM6.77214 2.20851H22.3975C22.6852 2.20851 22.9184 2.44178 22.9184 2.72942V10.1244L19.6278 6.28461C19.2787 5.87529 18.7735 5.65651 18.2308 5.64411C17.6912 5.64716 17.185 5.88673 16.8392 6.3014L12.9702 10.9451L11.7098 9.68779C10.9974 8.97538 9.83789 8.97538 9.12643 9.68779L6.25142 12.5619V2.72942C6.25142 2.44178 6.48469 2.20851 6.77214 2.20851Z" fill="#4B5EFF"/>
</svg>
