<svg width="22" height="22" viewBox="0 0 22 22" fill="none" xmlns="http://www.w3.org/2000/svg">
<path d="M11.2364 11.9332C11.9239 12.148 12.5617 12.509 13.1269 12.9946L19.2951 10.6827C19.6159 10.5624 19.7878 10.1713 19.6809 9.81467L17.374 2.02825C17.2671 1.66729 16.9195 1.47392 16.6025 1.59424L14.2689 2.47086L15.5331 6.74222L13.2148 7.60594L11.9506 3.33458L9.5979 4.2155C9.27708 4.33582 9.10521 4.72686 9.21215 5.08352L11.2364 11.9332ZM21.9686 14.0259L21.5791 12.7195C21.4721 12.3586 21.1246 12.1652 20.8076 12.2855L12.6533 15.3451C11.9964 14.3997 10.9881 13.7809 9.84616 13.7552L6.04977 0.941074C5.88172 0.378149 5.41577 0 4.88871 0H0.611088C0.27499 0 0 0.309394 0 0.687543V2.06263C0 2.44078 0.27499 2.75017 0.611088 2.75017H4.00645L7.52784 14.6404C6.53101 15.517 5.93519 16.9436 6.15289 18.5293C6.38587 20.2224 7.60041 21.6361 9.10521 21.9326C11.4044 22.3924 13.3943 20.4372 13.4363 17.9535L21.5829 14.8939C21.8999 14.7736 22.0756 14.3868 21.9686 14.0259ZM9.77741 19.9387C8.7653 19.9387 7.94415 19.0149 7.94415 17.8761C7.94415 16.7374 8.7653 15.8135 9.77741 15.8135C10.7895 15.8135 11.6107 16.7374 11.6107 17.8761C11.6107 19.0149 10.7895 19.9387 9.77741 19.9387Z" fill="#858EBD"/>
</svg>
