<svg width="22" height="22" viewBox="0 0 22 22" fill="none" xmlns="http://www.w3.org/2000/svg">
<path d="M5.13281 16.1333V2.93335H18.3328V16.1333C18.3328 17.7533 17.0194 19.0667 15.3995 19.0667" stroke="#858EBD" stroke-width="2" stroke-miterlimit="10" stroke-linecap="round" stroke-linejoin="round"/>
<path d="M12.4669 16.1333H2.93359C2.93359 17.7532 4.24699 19.0666 5.86693 19.0666H15.4003C13.7803 19.0666 12.4669 17.7532 12.4669 16.1333Z" stroke="#858EBD" stroke-width="2" stroke-miterlimit="10" stroke-linecap="round" stroke-linejoin="round"/>
<path d="M11 9.53345H15.4" stroke="#858EBD" stroke-width="2" stroke-miterlimit="10" stroke-linejoin="round"/>
<path d="M8.06641 9.53345H9.53307" stroke="#858EBD" stroke-width="2" stroke-miterlimit="10" stroke-linejoin="round"/>
<path d="M11 12.4666H15.4" stroke="#858EBD" stroke-width="2" stroke-miterlimit="10" stroke-linejoin="round"/>
<path d="M8.06641 12.4666H9.53307" stroke="#858EBD" stroke-width="2" stroke-miterlimit="10" stroke-linejoin="round"/>
<path d="M11 6.6001H15.4" stroke="#858EBD" stroke-width="2" stroke-miterlimit="10" stroke-linejoin="round"/>
<path d="M8.06641 6.6001H9.53307" stroke="#858EBD" stroke-width="2" stroke-miterlimit="10" stroke-linejoin="round"/>
<path d="M12.4669 16.1333H2.93359C2.93359 17.7532 4.24699 19.0666 5.86693 19.0666H15.4003C13.7803 19.0666 12.4669 17.7532 12.4669 16.1333Z" fill="#858EBD"/>
</svg>
