<svg width="22" height="22" viewBox="0 0 22 22" fill="none" xmlns="http://www.w3.org/2000/svg">
<path d="M21.9794 7.39613L20.735 2.41587C20.5824 1.804 20.0324 1.375 19.4012 1.375H2.60013C1.969 1.375 1.419 1.804 1.265 2.41587L0.020625 7.39613C0.006875 7.44975 0 7.50612 0 7.5625C0 9.45725 1.46438 11 3.26562 11C4.312 11 5.24563 10.4789 5.84375 9.67037C6.44187 10.4789 7.3755 11 8.42188 11C9.46825 11 10.4019 10.4789 11 9.67037C11.5981 10.4789 12.5304 11 13.5781 11C14.6259 11 15.5581 10.4789 16.1562 9.67037C16.7544 10.4789 17.6866 11 18.7344 11C20.5356 11 22 9.45725 22 7.5625C22 7.50612 21.9931 7.44975 21.9794 7.39613Z" fill="#858EBD"/>
<path d="M18.7344 12.3749C17.798 12.3749 16.9084 12.0889 16.1562 11.5664C14.652 12.6128 12.5042 12.6128 11 11.5664C9.49575 12.6128 7.348 12.6128 5.84375 11.5664C5.09162 12.0889 4.202 12.3749 3.26562 12.3749C2.5905 12.3749 1.95388 12.2168 1.375 11.9473V19.2499C1.375 20.0089 1.991 20.6249 2.75 20.6249H8.25V15.1249H13.75V20.6249H19.25C20.009 20.6249 20.625 20.0089 20.625 19.2499V11.9473C20.0461 12.2168 19.4095 12.3749 18.7344 12.3749Z" fill="#858EBD"/>
</svg>
