<svg width="22" height="22" viewBox="0 0 22 22" fill="none" xmlns="http://www.w3.org/2000/svg">
<path d="M11.6445 18.4766H12.9336V22H11.6445V18.4766Z" fill="#858EBD"/>
<path d="M9.06641 18.4766H10.3555V22H9.06641V18.4766Z" fill="#858EBD"/>
<path d="M15.3398 0H6.66016C6.3042 0 6.01562 0.288578 6.01562 0.644531V22H7.77734V17.832C7.77734 17.4761 8.06592 17.1875 8.42188 17.1875H11H13.5781C13.9341 17.1875 14.2227 17.4761 14.2227 17.832V22H15.9844V0.644531C15.9844 0.288578 15.6958 0 15.3398 0ZM9.06641 15.2539C9.06641 15.6099 8.77783 15.8984 8.42188 15.8984C8.06592 15.8984 7.77734 15.6099 7.77734 15.2539V13.9648C7.77734 13.6089 8.06592 13.3203 8.42188 13.3203C8.77783 13.3203 9.06641 13.6089 9.06641 13.9648V15.2539ZM9.06641 11.3867C9.06641 11.7427 8.77783 12.0312 8.42188 12.0312C8.06592 12.0312 7.77734 11.7427 7.77734 11.3867V10.0977C7.77734 9.7417 8.06592 9.45312 8.42188 9.45312C8.77783 9.45312 9.06641 9.7417 9.06641 10.0977V11.3867ZM11.6445 15.2539C11.6445 15.6099 11.356 15.8984 11 15.8984C10.644 15.8984 10.3555 15.6099 10.3555 15.2539V13.9648C10.3555 13.6089 10.644 13.3203 11 13.3203C11.356 13.3203 11.6445 13.6089 11.6445 13.9648V15.2539ZM11.6445 11.3867C11.6445 11.7427 11.356 12.0312 11 12.0312C10.644 12.0312 10.3555 11.7427 10.3555 11.3867V10.0977C10.3555 9.7417 10.644 9.45312 11 9.45312C11.356 9.45312 11.6445 9.7417 11.6445 10.0977V11.3867ZM14.2227 15.2539C14.2227 15.6099 13.9341 15.8984 13.5781 15.8984C13.2222 15.8984 12.9336 15.6099 12.9336 15.2539V13.9648C12.9336 13.6089 13.2222 13.3203 13.5781 13.3203C13.9341 13.3203 14.2227 13.6089 14.2227 13.9648V15.2539ZM14.2227 11.3867C14.2227 11.7427 13.9341 12.0312 13.5781 12.0312C13.2222 12.0312 12.9336 11.7427 12.9336 11.3867V10.0977C12.9336 9.7417 13.2222 9.45312 13.5781 9.45312C13.9341 9.45312 14.2227 9.7417 14.2227 10.0977V11.3867ZM9.06641 7.51953C9.06641 7.87548 8.77783 8.16406 8.42188 8.16406C8.06592 8.16406 7.77734 7.87548 7.77734 7.51953V6.23047C7.77734 5.87452 8.06592 5.58594 8.42188 5.58594C8.77783 5.58594 9.06641 5.87452 9.06641 6.23047V7.51953ZM11.6445 7.51953C11.6445 7.87548 11.356 8.16406 11 8.16406C10.644 8.16406 10.3555 7.87548 10.3555 7.51953V6.23047C10.3555 5.87452 10.644 5.58594 11 5.58594C11.356 5.58594 11.6445 5.87452 11.6445 6.23047V7.51953ZM14.2227 7.51953C14.2227 7.87548 13.9341 8.16406 13.5781 8.16406C13.2222 8.16406 12.9336 7.87548 12.9336 7.51953V6.23047C12.9336 5.87452 13.2222 5.58594 13.5781 5.58594C13.9341 5.58594 14.2227 5.87452 14.2227 6.23047V7.51953ZM9.06641 3.65234C9.06641 4.0083 8.77783 4.29688 8.42188 4.29688C8.06592 4.29688 7.77734 4.0083 7.77734 3.65234V2.36328C7.77734 2.00733 8.06592 1.71875 8.42188 1.71875C8.77783 1.71875 9.06641 2.00733 9.06641 2.36328V3.65234ZM11.6445 3.65234C11.6445 4.0083 11.356 4.29688 11 4.29688C10.644 4.29688 10.3555 4.0083 10.3555 3.65234V2.36328C10.3555 2.00733 10.644 1.71875 11 1.71875C11.356 1.71875 11.6445 2.00733 11.6445 2.36328V3.65234ZM14.2227 3.65234C14.2227 4.0083 13.9341 4.29688 13.5781 4.29688C13.2222 4.29688 12.9336 4.0083 12.9336 3.65234V2.36328C12.9336 2.00733 13.2222 1.71875 13.5781 1.71875C13.9341 1.71875 14.2227 2.00733 14.2227 2.36328V3.65234Z" fill="#858EBD"/>
<path d="M21.3555 8.59375H17.2734V22H21.3555C21.7114 22 22 21.7114 22 21.3555V9.23828C22 8.88233 21.7114 8.59375 21.3555 8.59375ZM20.2812 16.9727C20.2812 17.3286 19.9927 17.6172 19.6367 17.6172C19.2808 17.6172 18.9922 17.3286 18.9922 16.9727V15.6836C18.9922 15.3276 19.2808 15.0391 19.6367 15.0391C19.9927 15.0391 20.2812 15.3276 20.2812 15.6836V16.9727ZM20.2812 13.1055C20.2812 13.4614 19.9927 13.75 19.6367 13.75C19.2808 13.75 18.9922 13.4614 18.9922 13.1055V11.8164C18.9922 11.4605 19.2808 11.1719 19.6367 11.1719C19.9927 11.1719 20.2812 11.4605 20.2812 11.8164V13.1055Z" fill="#858EBD"/>
<path d="M0.644531 8.59375C0.288578 8.59375 0 8.88233 0 9.23828V21.3555C0 21.7114 0.288578 22 0.644531 22H4.72656V8.59375H0.644531ZM3.00781 16.9727C3.00781 17.3286 2.71923 17.6172 2.36328 17.6172C2.00733 17.6172 1.71875 17.3286 1.71875 16.9727V15.6836C1.71875 15.3276 2.00733 15.0391 2.36328 15.0391C2.71923 15.0391 3.00781 15.3276 3.00781 15.6836V16.9727ZM3.00781 13.1055C3.00781 13.4614 2.71923 13.75 2.36328 13.75C2.00733 13.75 1.71875 13.4614 1.71875 13.1055V11.8164C1.71875 11.4605 2.00733 11.1719 2.36328 11.1719C2.71923 11.1719 3.00781 11.4605 3.00781 11.8164V13.1055Z" fill="#858EBD"/>
</svg>
