<svg width="18" height="18" viewBox="0 0 18 18" fill="none" xmlns="http://www.w3.org/2000/svg">
<path d="M8 4.39989V9.99989H12.68V7.99989H10V4.39989H8ZM15.36 2.63989C13.6725 0.954487 11.385 0.0078125 9 0.0078125C6.61499 0.0078125 4.3275 0.954487 2.64 2.63989L2 3.30989L0 1.30989V6.99989H5.66L3.38 4.71989L4.05 4.04989C5.16851 2.94269 6.62751 2.24473 8.19147 2.06867C9.75543 1.89261 11.3331 2.24874 12.6698 3.07955C14.0064 3.91037 15.0241 5.16739 15.5586 6.64771C16.093 8.12803 16.113 9.74526 15.6153 11.2383C15.1176 12.7314 14.1313 14.0132 12.8156 14.8768C11.4998 15.7404 9.93144 16.1354 8.36361 15.998C6.79577 15.8607 5.31997 15.199 4.17444 14.1198C3.02891 13.0405 2.28049 11.6068 2.05 10.0499H0.05C0.307493 12.2419 1.36148 14.2629 3.0116 15.7287C4.66172 17.1944 6.7929 18.0027 9 17.9999C10.7789 17.9983 12.5174 17.4696 13.996 16.4806C15.4746 15.4916 16.6269 14.0865 17.3074 12.443C17.988 10.7994 18.1662 8.99104 17.8196 7.24626C17.473 5.50147 16.6171 3.89853 15.36 2.63989Z" fill="#FFA834"/>
</svg>
