<svg width="18" height="19" viewBox="0 0 18 19" fill="none" xmlns="http://www.w3.org/2000/svg">
<path fill-rule="evenodd" clip-rule="evenodd" d="M8.10156 0.625C12.4163 0.625 15.9141 4.12278 15.9141 8.4375C15.9141 10.2189 15.3178 11.8611 14.3141 13.1753L17.6923 16.5551C18.0991 16.9619 18.0991 17.6214 17.6923 18.0282C17.3168 18.4037 16.7259 18.4326 16.3173 18.1149L16.2192 18.0282L12.8393 14.65C11.5251 15.6538 9.88297 16.25 8.10156 16.25C3.78684 16.25 0.289062 12.7522 0.289062 8.4375C0.289062 4.12278 3.78684 0.625 8.10156 0.625ZM8.10156 2.70833C4.93743 2.70833 2.3724 5.27337 2.3724 8.4375C2.3724 11.6016 4.93743 14.1667 8.10156 14.1667C9.509 14.1667 10.7979 13.6592 11.7952 12.8172C11.8422 12.66 11.9284 12.5125 12.0525 12.3884C12.1765 12.2644 12.3241 12.1782 12.4808 12.1298C13.3232 11.1338 13.8307 9.84493 13.8307 8.4375C13.8307 5.27337 11.2657 2.70833 8.10156 2.70833Z" fill="#4B5EFF"/>
</svg>
