<svg width="18" height="19" viewBox="0 0 18 19" fill="none" xmlns="http://www.w3.org/2000/svg">
<path fill-rule="evenodd" clip-rule="evenodd" d="M7.9375 0.625C12.2522 0.625 15.75 4.12278 15.75 8.4375C15.75 10.2189 15.1538 11.8611 14.15 13.1753L17.5282 16.5551C17.935 16.9619 17.935 17.6214 17.5282 18.0282C17.1527 18.4037 16.5619 18.4326 16.1532 18.1149L16.0551 18.0282L12.6753 14.65C11.3611 15.6538 9.71891 16.25 7.9375 16.25C3.62278 16.25 0.125 12.7522 0.125 8.4375C0.125 4.12278 3.62278 0.625 7.9375 0.625ZM7.9375 2.70833C4.77337 2.70833 2.20833 5.27337 2.20833 8.4375C2.20833 11.6016 4.77337 14.1667 7.9375 14.1667C9.34493 14.1667 10.6338 13.6592 11.6312 12.8172C11.6782 12.66 11.7644 12.5125 11.8884 12.3884C12.0125 12.2644 12.16 12.1782 12.3168 12.1298C13.1592 11.1338 13.6667 9.84493 13.6667 8.4375C13.6667 5.27337 11.1016 2.70833 7.9375 2.70833Z" fill="#858EBD"/>
</svg>
