<svg width="18" height="17" viewBox="0 0 18 17" fill="none" xmlns="http://www.w3.org/2000/svg">
<path d="M17.0875 6.67872C16.9799 6.34593 16.6847 6.10957 16.3355 6.0781L11.592 5.64738L9.71628 1.25708C9.57798 0.935325 9.263 0.727051 8.91303 0.727051C8.56307 0.727051 8.24808 0.935325 8.10978 1.25783L6.23406 5.64738L1.48978 6.0781C1.14119 6.11032 0.846776 6.34593 0.738564 6.67872C0.630351 7.0115 0.730288 7.37652 0.993984 7.60661L4.57953 10.7512L3.52224 15.4085C3.44487 15.751 3.57778 16.105 3.86192 16.3103C4.01465 16.4207 4.19333 16.4769 4.37351 16.4769C4.52887 16.4769 4.68298 16.435 4.82128 16.3522L8.91303 13.9067L13.0033 16.3522C13.3026 16.5323 13.6799 16.5159 13.9634 16.3103C14.2477 16.1043 14.3804 15.7502 14.3031 15.4085L13.2458 10.7512L16.8313 7.60723C17.095 7.37652 17.1957 7.01213 17.0875 6.67872Z" fill="#858EBD"/>
</svg>
