<svg width="17" height="17" viewBox="0 0 17 17" fill="none" xmlns="http://www.w3.org/2000/svg">
<path d="M16.9572 6.67896C16.8496 6.34617 16.5544 6.10981 16.2052 6.07834L11.4617 5.64762L9.58595 1.25732C9.44764 0.935569 9.13266 0.727295 8.78269 0.727295C8.43273 0.727295 8.11775 0.935569 7.97944 1.25807L6.10372 5.64762L1.35944 6.07834C1.01086 6.11057 0.716439 6.34617 0.608227 6.67896C0.500015 7.01175 0.599951 7.37676 0.863648 7.60685L4.44919 10.7514L3.3919 15.4088C3.31453 15.7512 3.44745 16.1052 3.73158 16.3106C3.88431 16.4209 4.06299 16.4771 4.24318 16.4771C4.39854 16.4771 4.55264 16.4352 4.69095 16.3525L8.78269 13.907L12.8729 16.3525C13.1722 16.5325 13.5495 16.5161 13.8331 16.3106C14.1173 16.1046 14.2501 15.7505 14.1727 15.4088L13.1154 10.7514L16.701 7.60748C16.9647 7.37676 17.0654 7.01238 16.9572 6.67896Z" fill="#FFC107"/>
</svg>
