<svg width="39" height="37" viewBox="0 0 39 37" fill="none" xmlns="http://www.w3.org/2000/svg">
<path d="M38.3102 13.9098C38.0587 13.1321 37.3689 12.5797 36.5527 12.5061L25.4665 11.4995L21.0826 1.23874C20.7594 0.486764 20.0233 0 19.2053 0C18.3874 0 17.6513 0.486764 17.328 1.2405L12.9442 11.4995L1.8562 12.5061C1.04151 12.5814 0.353419 13.1321 0.100513 13.9098C-0.152393 14.6876 0.0811713 15.5407 0.697465 16.0784L9.07736 23.4277L6.60633 34.3126C6.42551 35.1129 6.73615 35.9402 7.40021 36.4203C7.75715 36.6781 8.17476 36.8094 8.59588 36.8094C8.95897 36.8094 9.31914 36.7116 9.64237 36.5181L19.2053 30.8027L28.7648 36.5181C29.4643 36.939 30.3461 36.9006 31.0087 36.4203C31.6731 35.9388 31.9834 35.1112 31.8026 34.3126L29.3316 23.4277L37.7115 16.0799C38.3277 15.5407 38.5631 14.6891 38.3102 13.9098Z" fill="#FFC107"/>
</svg>
