<svg width="215" height="37" viewBox="0 0 215 37" fill="none" xmlns="http://www.w3.org/2000/svg">
<path d="M38.3102 13.9098C38.0587 13.1321 37.3689 12.5797 36.5527 12.5061L25.4665 11.4995L21.0826 1.23874C20.7594 0.486764 20.0233 0 19.2053 0C18.3874 0 17.6513 0.486764 17.328 1.2405L12.9442 11.4995L1.8562 12.5061C1.04151 12.5814 0.353419 13.1321 0.100513 13.9098C-0.152393 14.6876 0.0811713 15.5407 0.697465 16.0784L9.07737 23.4277L6.60633 34.3126C6.42551 35.1129 6.73615 35.9402 7.40021 36.4203C7.75715 36.6781 8.17476 36.8094 8.59588 36.8094C8.95897 36.8094 9.31914 36.7116 9.64238 36.5181L19.2053 30.8027L28.7648 36.5181C29.4643 36.939 30.3461 36.9006 31.0087 36.4203C31.6731 35.9388 31.9834 35.1112 31.8026 34.3126L29.3316 23.4277L37.7115 16.0799C38.3277 15.5407 38.5631 14.6891 38.3102 13.9098V13.9098Z" fill="#858EBD"/>
<path d="M82.2008 13.9098C81.9493 13.1321 81.2595 12.5797 80.4433 12.5061L69.3571 11.4995L64.9733 1.23874C64.65 0.486764 63.9139 0 63.096 0C62.278 0 61.5419 0.486764 61.2187 1.2405L56.8348 11.4995L45.7468 12.5061C44.9321 12.5814 44.244 13.1321 43.9911 13.9098C43.7382 14.6876 43.9718 15.5407 44.5881 16.0784L52.968 23.4277L50.497 34.3126C50.3161 35.1129 50.6268 35.9402 51.2908 36.4203C51.6478 36.6781 52.0654 36.8094 52.4865 36.8094C52.8496 36.8094 53.2098 36.7116 53.533 36.5181L63.096 30.8027L72.6554 36.5181C73.3549 36.939 74.2367 36.9006 74.8993 36.4203C75.5637 35.9388 75.874 35.1112 75.6932 34.3126L73.2222 23.4277L81.6021 16.0799C82.2184 15.5407 82.4537 14.6891 82.2008 13.9098V13.9098Z" fill="#858EBD"/>
<path d="M126.107 13.9098C125.856 13.1321 125.166 12.5797 124.35 12.5061L113.263 11.4995L108.88 1.23874C108.556 0.486764 107.82 0 107.002 0C106.184 0 105.448 0.486764 105.125 1.2405L100.741 11.4995L89.6531 12.5061C88.8384 12.5814 88.1503 13.1321 87.8974 13.9098C87.6445 14.6876 87.878 15.5407 88.4943 16.0784L96.8742 23.4277L94.4032 34.3126C94.2224 35.1129 94.533 35.9402 95.1971 36.4203C95.554 36.6781 95.9716 36.8094 96.3928 36.8094C96.7558 36.8094 97.116 36.7116 97.4393 36.5181L107.002 30.8027L116.562 36.5181C117.261 36.939 118.143 36.9006 118.806 36.4203C119.47 35.9388 119.78 35.1112 119.599 34.3126L117.128 23.4277L125.508 16.0799C126.125 15.5407 126.36 14.6891 126.107 13.9098V13.9098Z" fill="#858EBD"/>
<path d="M169.998 13.9098C169.746 13.1321 169.056 12.5797 168.24 12.5061L157.154 11.4995L152.77 1.23874C152.447 0.486764 151.711 0 150.893 0C150.075 0 149.339 0.486764 149.016 1.2405L144.632 11.4995L133.544 12.5061C132.729 12.5814 132.041 13.1321 131.788 13.9098C131.535 14.6876 131.769 15.5407 132.385 16.0784L140.765 23.4277L138.294 34.3126C138.113 35.1129 138.424 35.9402 139.088 36.4203C139.445 36.6781 139.862 36.8094 140.283 36.8094C140.646 36.8094 141.007 36.7116 141.33 36.5181L150.893 30.8027L160.452 36.5181C161.152 36.939 162.034 36.9006 162.696 36.4203C163.361 35.9388 163.671 35.1112 163.49 34.3126L161.019 23.4277L169.399 16.0799C170.015 15.5407 170.251 14.6891 169.998 13.9098V13.9098Z" fill="#858EBD"/>
<path d="M213.904 13.9098C213.652 13.1321 212.963 12.5797 212.146 12.5061L201.06 11.4995L196.676 1.23874C196.353 0.486764 195.617 0 194.799 0C193.981 0 193.245 0.486764 192.922 1.2405L188.538 11.4995L177.45 12.5061C176.635 12.5814 175.947 13.1321 175.694 13.9098C175.441 14.6876 175.675 15.5407 176.291 16.0784L184.671 23.4277L182.2 34.3126C182.019 35.1129 182.33 35.9402 182.994 36.4203C183.351 36.6781 183.769 36.8094 184.19 36.8094C184.553 36.8094 184.913 36.7116 185.236 36.5181L194.799 30.8027L204.359 36.5181C205.058 36.939 205.94 36.9006 206.602 36.4203C207.267 35.9388 207.577 35.1112 207.396 34.3126L204.925 23.4277L213.305 16.0799C213.921 15.5407 214.157 14.6891 213.904 13.9098V13.9098Z" fill="#858EBD"/>
</svg>
