<svg width="26" height="21" viewBox="0 0 26 21" fill="none" xmlns="http://www.w3.org/2000/svg">
<path d="M24.1741 5.43781H23.462V13.2648C23.462 14.4835 22.7524 15.5854 21.33 15.5854H7.39355V15.9576C7.39355 17.035 8.61898 18.1226 9.8774 18.1226H20.5325L24.6088 20.5193L24.0176 18.1226H24.1741C25.4316 18.1226 25.9991 17.0375 25.9991 15.9576V7.29582C25.9991 6.21839 25.4316 5.43781 24.1741 5.43781Z" fill="#858EBD"/>
<path d="M19.25 0H3.06315C1.63898 0 0 1.26518 0 2.48469V12.2949C0 13.418 1.38865 14.229 2.72064 14.3542L1.85379 17.6448L7.4084 14.377H19.25C20.6742 14.377 21.9884 13.5136 21.9884 12.2949V4.35793V2.48469C21.9884 1.26518 20.6733 0 19.25 0ZM5.53262 8.28117C4.72497 8.28117 4.07039 7.62659 4.07039 6.81894C4.07039 6.01129 4.72497 5.35671 5.53262 5.35671C6.33942 5.35671 6.99485 6.01129 6.99485 6.81894C6.99485 7.62659 6.33942 8.28117 5.53262 8.28117ZM10.9942 8.28117C10.1865 8.28117 9.53197 7.62659 9.53197 6.81894C9.53197 6.01129 10.1865 5.35671 10.9942 5.35671C11.8018 5.35671 12.4564 6.01129 12.4564 6.81894C12.4564 7.62659 11.8018 8.28117 10.9942 8.28117ZM16.4566 8.28117C15.649 8.28117 14.9935 7.62659 14.9935 6.81894C14.9935 6.01129 15.649 5.35671 16.4566 5.35671C17.2626 5.35671 17.9188 6.01129 17.9188 6.81894C17.9188 7.62659 17.2626 8.28117 16.4566 8.28117Z" fill="#858EBD"/>
</svg>
