<svg width="18" height="13" viewBox="0 0 18 13" fill="none" xmlns="http://www.w3.org/2000/svg">
<path d="M17.4727 0H6.01172V1.23047C6.01172 1.5217 5.77561 1.75781 5.48438 1.75781C5.19314 1.75781 4.95703 1.5217 4.95703 1.23047V0H0.527344C0.236109 0 0 0.236109 0 0.527344V2.40233C0 2.69357 0.236109 2.92968 0.527344 2.92968C1.01197 2.92968 1.40625 3.32395 1.40625 3.80858C1.40625 4.29321 1.01197 4.68749 0.527344 4.68749C0.236109 4.68749 0 4.9236 0 5.21483V7.08982C0 7.38105 0.236109 7.61716 0.527344 7.61716C1.01197 7.61716 1.40625 8.01144 1.40625 8.49607C1.40625 8.9807 1.01197 9.37498 0.527344 9.37498C0.236109 9.37498 0 9.61108 0 9.90232V11.7773C0 12.0686 0.236109 12.3047 0.527344 12.3047H4.95703V11.0742C4.95703 10.783 5.19314 10.5469 5.48438 10.5469C5.77561 10.5469 6.01172 10.783 6.01172 11.0742V12.3047H17.4727C17.7639 12.3047 18 12.0686 18 11.7773V0.527344C18 0.236109 17.7639 0 17.4727 0ZM6.01172 8.80256C6.01172 9.0938 5.77561 9.32991 5.48438 9.32991C5.19314 9.32991 4.95703 9.0938 4.95703 8.80256V7.28814C4.95703 6.9969 5.19314 6.76079 5.48438 6.76079C5.77561 6.76079 6.01172 6.9969 6.01172 7.28814V8.80256ZM6.01172 5.01652C6.01172 5.30775 5.77561 5.54386 5.48438 5.54386C5.19314 5.54386 4.95703 5.30775 4.95703 5.01652V3.50209C4.95703 3.21086 5.19314 2.97475 5.48438 2.97475C5.77561 2.97475 6.01172 3.21086 6.01172 3.50209V5.01652ZM8.62059 3.99596C8.62059 3.03064 9.32941 2.24529 10.2007 2.24529C11.0719 2.24529 11.7807 3.03064 11.7807 3.99596C11.7807 4.96129 11.0719 5.74661 10.2007 5.74661C9.32941 5.74661 8.62059 4.96129 8.62059 3.99596ZM10.7072 9.76602C10.6392 9.76602 10.5701 9.75277 10.5034 9.72482C10.2348 9.61211 10.1085 9.30301 10.2212 9.03449L12.8685 2.72668C12.9812 2.45816 13.2902 2.33181 13.5588 2.44452C13.8274 2.55723 13.9537 2.86629 13.841 3.13485L11.1937 9.44265C11.109 9.64448 10.9133 9.76602 10.7072 9.76602ZM13.7759 10.0594C12.9047 10.0594 12.1958 9.27404 12.1958 8.30872C12.1958 7.3434 12.9047 6.55808 13.7759 6.55808C14.6471 6.55808 15.356 7.3434 15.356 8.30872C15.356 9.27404 14.6471 10.0594 13.7759 10.0594Z" fill="#858EBD"/>
</svg>
