<svg width="16" height="16" viewBox="0 0 16 16" fill="none" xmlns="http://www.w3.org/2000/svg">
<path fill-rule="evenodd" clip-rule="evenodd" d="M0.5 4.5C0.5 2.29086 2.29086 0.5 4.5 0.5H11.5C13.7091 0.5 15.5 2.29086 15.5 4.5V11.5C15.5 13.7091 13.7091 15.5 11.5 15.5H4.5C2.29086 15.5 0.5 13.7091 0.5 11.5V4.5ZM10.5 5.5C10.5 6.88333 9.38333 8 8 8C6.61667 8 5.5 6.88333 5.5 5.5C5.5 4.11667 6.61667 3 8 3C9.38333 3 10.5 4.11667 10.5 5.5ZM8 9.58325C6.33333 9.58325 3 10.4999 3 12.1666C3 12.6268 3.3731 12.9999 3.83333 12.9999H12.1667C12.6269 12.9999 13 12.6268 13 12.1666C13 10.4999 9.66667 9.58325 8 9.58325Z" fill="#4B5EFF"/>
</svg>
