<svg width="17" height="17" viewBox="0 0 17 17" fill="none" xmlns="http://www.w3.org/2000/svg">
<path d="M16.8299 8.19745L13.1732 11.7946V10.2119H8.98272V6.32235H13.1749V4.60025L16.8299 8.19745ZM11.2947 3.30485H7.91512V2.05875H11.2573C11.8727 2.05875 12.3708 2.63505 12.3708 3.34565V5.57775H11.293L11.2947 3.30485ZM5.81052 16.2979L0.921322 14.0709C0.504822 14.0709 0.169922 13.5728 0.169922 12.9574V4.04265C0.169922 3.42725 0.504822 2.92915 0.921322 2.92915L5.81052 0.702148C6.22532 0.702148 6.56362 1.20025 6.56362 1.81565V15.1844C6.56362 15.7998 6.22532 16.2979 5.81052 16.2979ZM4.57292 7.19955C4.06122 7.19955 3.64472 7.61605 3.64472 8.12775C3.64472 8.64115 4.06122 9.05595 4.57292 9.05595C5.08632 9.05595 5.50112 8.64115 5.50112 8.12775C5.50112 7.61605 5.08632 7.19955 4.57292 7.19955ZM11.2947 10.7678H12.3725V13.6527C12.3725 14.365 11.8744 14.9413 11.259 14.9413H7.91512V13.6952H11.2947V10.7678Z" fill="#858EBD"/>
</svg>
