<svg width="15" height="13" viewBox="0 0 15 13" fill="none" xmlns="http://www.w3.org/2000/svg">
<path d="M13.1733 0.666504H2.37539C1.42536 0.666504 0.332031 1.51048 0.332031 2.32398V8.86816C0.332031 9.61735 1.25837 10.1584 2.14691 10.2419L1.56865 12.437L5.27401 10.2571H13.1733C14.1233 10.2571 15 9.6811 15 8.86816V3.57358V2.32398C15 1.51048 14.1227 0.666504 13.1733 0.666504ZM4.02272 6.19069C3.48395 6.19069 3.0473 5.75403 3.0473 5.21527C3.0473 4.6765 3.48395 4.23985 4.02272 4.23985C4.56092 4.23985 4.99814 4.6765 4.99814 5.21527C4.99814 5.75403 4.56092 6.19069 4.02272 6.19069ZM7.66602 6.19069C7.12725 6.19069 6.6906 5.75403 6.6906 5.21527C6.6906 4.6765 7.12725 4.23985 7.66602 4.23985C8.20478 4.23985 8.64144 4.6765 8.64144 5.21527C8.64144 5.75403 8.20478 6.19069 7.66602 6.19069ZM11.3099 6.19069C10.7711 6.19069 10.3339 5.75403 10.3339 5.21527C10.3339 4.6765 10.7711 4.23985 11.3099 4.23985C11.8475 4.23985 12.2853 4.6765 12.2853 5.21527C12.2853 5.75403 11.8475 6.19069 11.3099 6.19069Z" fill="white"/>
</svg>
