<svg width="19" height="23" viewBox="0 0 19 23" fill="none" xmlns="http://www.w3.org/2000/svg">
<path d="M13.0938 1.4375H11.5326C11.2365 0.600875 10.4373 0 9.5 0C8.56275 0 7.7635 0.600875 7.46594 1.4375H5.90625C5.5095 1.4375 5.1875 1.7595 5.1875 2.15625V5.03125C5.1875 5.428 5.5095 5.75 5.90625 5.75H13.0938C13.4905 5.75 13.8125 5.428 13.8125 5.03125V2.15625C13.8125 1.7595 13.4905 1.4375 13.0938 1.4375Z" fill="#4B5EFF"/>
<path d="M16.6875 2.875H15.25V5.03125C15.25 6.22006 14.2826 7.1875 13.0938 7.1875H5.90625C4.71744 7.1875 3.75 6.22006 3.75 5.03125V2.875H2.3125C1.52044 2.875 0.875 3.52044 0.875 4.3125V21.5625C0.875 22.3689 1.50606 23 2.3125 23H16.6875C17.4939 23 18.125 22.3689 18.125 21.5625V4.3125C18.125 3.50606 17.4939 2.875 16.6875 2.875ZM9.29012 15.6026L6.41512 18.4776C6.27425 18.6171 6.09025 18.6875 5.90625 18.6875C5.72225 18.6875 5.53825 18.6171 5.39738 18.4776L3.95987 17.0401C3.67956 16.7598 3.67956 16.3041 3.95987 16.0238C4.24019 15.7435 4.69588 15.7435 4.97619 16.0238L5.90625 16.9524L8.27238 14.5863C8.55269 14.306 9.00838 14.306 9.28869 14.5863C9.569 14.8666 9.57044 15.3209 9.29012 15.6026ZM9.29012 9.85262L6.41512 12.7276C6.27425 12.8671 6.09025 12.9375 5.90625 12.9375C5.72225 12.9375 5.53825 12.8671 5.39738 12.7276L3.95987 11.2901C3.67956 11.0098 3.67956 10.5541 3.95987 10.2738C4.24019 9.9935 4.69588 9.9935 4.97619 10.2738L5.90625 11.2024L8.27238 8.83631C8.55269 8.556 9.00838 8.556 9.28869 8.83631C9.569 9.11662 9.57044 9.57088 9.29012 9.85262ZM14.5312 17.25H11.6562C11.2595 17.25 10.9375 16.928 10.9375 16.5312C10.9375 16.1345 11.2595 15.8125 11.6562 15.8125H14.5312C14.928 15.8125 15.25 16.1345 15.25 16.5312C15.25 16.928 14.928 17.25 14.5312 17.25ZM14.5312 11.5H11.6562C11.2595 11.5 10.9375 11.178 10.9375 10.7812C10.9375 10.3845 11.2595 10.0625 11.6562 10.0625H14.5312C14.928 10.0625 15.25 10.3845 15.25 10.7812C15.25 11.178 14.928 11.5 14.5312 11.5Z" fill="#4B5EFF"/>
</svg>
