<svg width="18" height="17" viewBox="0 0 18 17" fill="none" xmlns="http://www.w3.org/2000/svg">
<path fill-rule="evenodd" clip-rule="evenodd" d="M8.48438 0C7.91485 0 7.45312 0.461707 7.45312 1.03125L7.32928 1.89785C7.21846 2.67377 6.31673 3.04728 5.68969 2.57701L4.98938 2.05177C4.58665 1.64904 3.9337 1.64904 3.53097 2.05177L2.80177 2.78097C2.39904 3.1837 2.39904 3.83665 2.80177 4.23938L3.327 4.93969C3.79728 5.56673 3.42377 6.46846 2.64784 6.57928L1.78125 6.70312C1.21171 6.70312 0.75 7.16485 0.75 7.73438V8.76562C0.75 9.33515 1.21171 9.79688 1.78125 9.79688L2.64785 9.92072C3.42378 10.0315 3.79729 10.9333 3.32701 11.5603L2.80177 12.2606C2.39904 12.6634 2.39904 13.3163 2.80177 13.719L3.53097 14.4482C3.9337 14.851 4.58665 14.851 4.98938 14.4482L5.68969 13.923C6.31673 13.4527 7.21846 13.8263 7.32928 14.6021L7.45312 15.4688C7.45312 16.0383 7.91485 16.5 8.48438 16.5H9.51562C10.0851 16.5 10.5469 16.0383 10.5469 15.4688L10.6707 14.6021C10.7815 13.8263 11.6833 13.4527 12.3103 13.923L13.0106 14.4482C13.4134 14.851 14.0663 14.851 14.469 14.4482L15.1982 13.719C15.6009 13.3163 15.6009 12.6634 15.1982 12.2606L14.673 11.5603C14.2027 10.9333 14.5763 10.0315 15.3521 9.92072L16.2188 9.79688C16.7883 9.79688 17.25 9.33515 17.25 8.76562V7.73438C17.25 7.16485 16.7883 6.70312 16.2188 6.70312L15.3521 6.57928C14.5763 6.46846 14.2027 5.56673 14.673 4.93969L15.1982 4.23938C15.6009 3.83665 15.6009 3.1837 15.1982 2.78097L14.469 2.05177C14.0663 1.64904 13.4134 1.64904 13.0106 2.05177L12.3103 2.57701C11.6833 3.04728 10.7815 2.67377 10.6707 1.89785L10.5469 1.03125C10.5469 0.461707 10.0851 0 9.51562 0H8.48438ZM9 10.3125C10.1391 10.3125 11.0625 9.38905 11.0625 8.25C11.0625 7.11095 10.1391 6.1875 9 6.1875C7.86095 6.1875 6.9375 7.11095 6.9375 8.25C6.9375 9.38905 7.86095 10.3125 9 10.3125Z" fill="#858EBD"/>
</svg>
