<svg width="16" height="16" viewBox="0 0 16 16" fill="none" xmlns="http://www.w3.org/2000/svg">
<path fill-rule="evenodd" clip-rule="evenodd" d="M8.50375 12.2007V12.4877C8.50375 12.8489 8.23689 13.1458 7.91222 13.1458H7.90777C7.5831 13.1458 7.31625 12.8489 7.31625 12.4877V12.1908C6.72472 12.0523 6.19991 11.6911 5.97753 11.0825C5.87523 10.8103 6.06648 10.5085 6.33333 10.5085H6.44007C6.60463 10.5085 6.73806 10.6322 6.80033 10.8054C6.92931 11.1765 7.26732 11.4338 7.91667 11.4338C8.78839 11.4338 8.98408 10.9489 8.98408 10.6471C8.98408 10.2364 8.78839 9.85044 7.79658 9.5882C6.69359 9.29132 5.9375 8.78664 5.9375 7.77231C5.9375 6.92127 6.55571 6.36711 7.32069 6.18403V5.88716C7.32069 5.52596 7.58755 5.22908 7.91222 5.22908H7.91667C8.24134 5.22908 8.50819 5.52596 8.50819 5.88716V6.19393C9.12196 6.36216 9.50889 6.78768 9.6779 7.31216C9.76685 7.58429 9.58006 7.87127 9.31765 7.87127H9.20201C9.03745 7.87127 8.90403 7.74263 8.85955 7.5645C8.75726 7.18846 8.47706 6.94601 7.91667 6.94601C7.24953 6.94601 6.84925 7.28247 6.84925 7.75747C6.84925 8.17309 7.13834 8.44523 8.03675 8.70252C8.93516 8.95981 9.89583 9.39028 9.89583 10.6372C9.88694 11.5426 9.27762 12.0374 8.50375 12.2007ZM14.25 3.24992H11.0833V1.66659C11.0833 0.787835 10.3787 0.083252 9.5 0.083252H6.33333C5.45458 0.083252 4.75 0.787835 4.75 1.66659V3.24992H1.58333C0.704583 3.24992 0.00791667 3.9545 0.00791667 4.83325L0 13.5416C0 14.4203 0.704583 15.1249 1.58333 15.1249H14.25C15.1287 15.1249 15.8333 14.4203 15.8333 13.5416V4.83325C15.8333 3.9545 15.1287 3.24992 14.25 3.24992ZM9.5 3.24992H6.33333V1.66659H9.5V3.24992Z" fill="#858EBD"/>
</svg>
