<svg width="17" height="16" viewBox="0 0 17 16" fill="none" xmlns="http://www.w3.org/2000/svg">
<path d="M16.3919 5.95167C16.2844 5.61888 15.9892 5.38252 15.64 5.35105L10.8964 4.92033L9.02073 0.530026C8.88242 0.208274 8.56744 0 8.21747 0C7.86751 0 7.55253 0.208274 7.41422 0.530779L5.5385 4.92033L0.794222 5.35105C0.445636 5.38327 0.151219 5.61888 0.0430069 5.95167C-0.0652052 6.28445 0.0347311 6.64947 0.298428 6.87956L3.88397 10.0241L2.82668 14.6815C2.74931 15.0239 2.88223 15.3779 3.16636 15.5833C3.31909 15.6936 3.49777 15.7498 3.67796 15.7498C3.83332 15.7498 3.98742 15.7079 4.12573 15.6252L8.21747 13.1797L12.3077 15.6252C12.607 15.8052 12.9843 15.7888 13.2678 15.5833C13.5521 15.3773 13.6849 15.0232 13.6075 14.6815L12.5502 10.0241L16.1358 6.88018C16.3995 6.64947 16.5002 6.28508 16.3919 5.95167Z" fill="#858EBD"/>
</svg>
