<svg width="16" height="21" viewBox="0 0 16 21" fill="none" xmlns="http://www.w3.org/2000/svg">
<path fill-rule="evenodd" clip-rule="evenodd" d="M8.0023 20.6545C9.16245 20.6545 10.1117 19.7053 10.1117 18.5451H5.89294C5.89294 19.7053 6.8316 20.6545 8.0023 20.6545ZM14.3294 14.2382V8.96477C14.3294 5.72691 12.5997 3.01638 9.58332 2.2992V1.58202C9.58332 0.706635 8.87668 0 8.0013 0C7.12592 0 6.41928 0.706635 6.41928 1.58202V2.2992C3.39235 3.01638 1.67322 5.71636 1.67322 8.96477V14.2382L0.312688 15.5987C-0.35176 16.2632 0.112299 17.4022 1.05096 17.4022H14.9411C15.8798 17.4022 16.3544 16.2632 15.6899 15.5987L14.3294 14.2382Z" fill="#858EBD"/>
</svg>
