<svg width="12" height="17" viewBox="0 0 12 17" fill="none" xmlns="http://www.w3.org/2000/svg">
<path d="M0.375 0.5V1.83333H1.625V4.5C1.625 6.19531 2.47949 7.68229 3.75391 8.5C2.47949 9.31771 1.625 10.8047 1.625 12.5V15.1667H0.375V16.5H11.625V15.1667H10.375V12.5C10.375 10.8047 9.52051 9.31771 8.24609 8.5C9.52051 7.68229 10.375 6.19531 10.375 4.5V1.83333H11.625V0.5H0.375ZM2.875 1.83333H9.125V4.5C9.125 6.34896 7.7334 7.83333 6 7.83333C4.2666 7.83333 2.875 6.34896 2.875 4.5V1.83333ZM6 9.16667C7.7334 9.16667 9.125 10.651 9.125 12.5V15.1667H8.5V13.8333C8.5 12.3594 7.38184 11.1667 6 11.1667C4.61816 11.1667 3.5 12.3594 3.5 13.8333V15.1667H2.875V12.5C2.875 10.651 4.2666 9.16667 6 9.16667Z" fill="#858EBD"/>
</svg>
